<?xml version="1.0" encoding="UTF-8" standalone="no"?>
<svg
   xmlns:dc="http://purl.org/dc/elements/1.1/"
   xmlns:cc="http://creativecommons.org/ns#"
   xmlns:rdf="http://www.w3.org/1999/02/22-rdf-syntax-ns#"
   xmlns:svg="http://www.w3.org/2000/svg"
   xmlns="http://www.w3.org/2000/svg"
   xmlns:sodipodi="http://sodipodi.sourceforge.net/DTD/sodipodi-0.dtd"
   xmlns:inkscape="http://www.inkscape.org/namespaces/inkscape"
   width="144.99777"
   height="20.002157"
   viewBox="0 0 144.99777 20.002157"
   version="1.1"
   id="svg2"
   inkscape:version="0.91 r13725"
   sodipodi:docname="admin_icons.svg">
  <metadata
     id="metadata303">
    <rdf:RDF>
      <cc:Work
         rdf:about="">
        <dc:format>
          image/svg+xml
        </dc:format>
        <dc:type
           rdf:resource="http://purl.org/dc/dcmitype/StillImage" />
        <dc:title>
    free-flat-social-icons
  </dc:title>
      </cc:Work>
    </rdf:RDF>
  </metadata>
  <sodipodi:namedview
     pagecolor="#ffffff"
     bordercolor="#666666"
     borderopacity="1"
     objecttolerance="10"
     gridtolerance="10"
     guidetolerance="10"
     inkscape:pageopacity="0"
     inkscape:pageshadow="2"
     inkscape:window-width="1314"
     inkscape:window-height="932"
     id="namedview301"
     showgrid="false"
     inkscape:snap-midpoints="true"
     inkscape:snap-intersection-paths="true"
     inkscape:snap-nodes="true"
     fit-margin-top="0"
     fit-margin-left="0"
     fit-margin-right="0"
     fit-margin-bottom="0"
     inkscape:zoom="4"
     inkscape:cx="118.52"
     inkscape:cy="19.65108"
     inkscape:window-x="91"
     inkscape:window-y="14"
     inkscape:window-maximized="0"
     inkscape:current-layer="svg2" />
  <title
     id="title4">
    free-flat-social-icons
  </title>
  <description>
    Created with Sketch (http://www.bohemiancoding.com/sketch)
  </description>
  <defs
     id="defs6" />
  <g
     id="g4480"
     transform="matrix(0.33295925,0,0,0.33379638,3.4006682,0.00107888)">
    <path
       inkscape:connector-curvature="0"
       id="path178"
       d="M 139.96,29.96 C 139.96,13.41 153.41,0 169.99,0 c 16.59,0 30.03,13.41 30.03,29.96 0,16.55 -13.45,29.96 -30.03,29.96 -16.59,0 -30.03,-13.41 -30.03,-29.96 z m 0,0"
       style="fill:#d34836;fill-rule:evenodd" />
    <path
       inkscape:connector-curvature="0"
       id="path180"
       d="m 199.09,23.06 -7.1,0 0,7.87 -3.35,0 0,-7.87 -7.81,0 0,-3.28 7.81,0 0,-7.8 3.35,0 0,7.8 5.96,0 c 0.44,1.06 0.82,2.16 1.14,3.28 z m 0,0"
       style="fill:#ffffff;fill-rule:evenodd" />
    <path
       inkscape:connector-curvature="0"
       id="path182"
       d="m 148.21,49.35 c 0.84,-1.41 2.14,-2.79 4.07,-3.93 4.35,-2.66 10.21,-3.01 13.39,-3.21 -0.98,-1.25 -2.11,-2.58 -2.11,-4.77 0,-1.18 0.35,-1.88 0.7,-2.71 -0.78,0.08 -1.53,0.15 -2.24,0.15 -7.42,0 -11.62,-5.52 -11.62,-10.97 0,-3.21 1.48,-6.78 4.48,-9.36 4,-3.28 8.76,-3.84 12.53,-3.84 l 14.42,0 -4.48,2.51 -4.33,0 c 1.61,1.33 4.96,4.12 4.96,9.44 0,5.17 -2.94,7.6 -5.86,9.91 -0.93,0.9 -1.96,1.88 -1.96,3.41 0,1.53 1.03,2.38 1.81,3.01 l 2.52,1.96 c 3.09,2.56 5.89,4.94 5.89,9.76 0,3.18 -1.49,6.37 -4.38,8.81 -1.56,0.25 -3.16,0.39 -4.79,0.39 2.94,-1.29 4.47,-3.64 4.47,-6.47 0,-3.56 -2.29,-5.45 -7.62,-9.24 -0.55,-0.05 -0.91,-0.05 -1.61,-0.05 -0.63,0 -4.4,0.13 -7.35,1.1 -1.53,0.55 -6.01,2.23 -6.01,7.2 0,0.54 0.06,1.06 0.17,1.57 -7.38,-5.46 -4.18,-4.69 -5.02,-4.69 z m 23.6,-23.48 c 0,-5.04 -2.99,-12.86 -8.81,-12.86 -1.81,0 -3.77,0.91 -4.91,2.31 -1.18,1.47 -1.53,3.35 -1.53,5.15 0,4.69 2.72,12.45 8.76,12.45 1.74,0 3.62,-0.85 4.76,-1.96 1.61,-1.61 1.74,-3.84 1.74,-5.09 z m 0,0"
       style="fill:#ffffff;fill-rule:evenodd" />
  </g>
  <g
     id="g4470"
     transform="matrix(0.33295924,0,0,0.33379639,51.700336,-23.392451)">
    <path
       inkscape:connector-curvature="0"
       id="path196"
       d="m 69.98,100.04 c 0,-16.55 13.45,-29.96 30.03,-29.96 16.59,0 30.03,13.41 30.03,29.96 0,16.55 -13.45,29.96 -30.03,29.96 -16.59,0 -30.03,-13.41 -30.03,-29.96 z m 0,0"
       style="fill:#007bb6;fill-rule:evenodd" />
    <path
       inkscape:connector-curvature="0"
       id="path198"
       d="m 92.36,93.76 -6.8,0 0,20.4 6.8,0 0,-20.4 z m 0,0"
       style="fill:#ffffff;fill-rule:evenodd" />
    <path
       inkscape:connector-curvature="0"
       id="path200"
       d="m 92.8,87.45 c -0.04,-2 -1.48,-3.52 -3.8,-3.52 -2.33,0 -3.85,1.52 -3.85,3.52 0,1.96 1.48,3.53 3.76,3.53 l 0.04,0 c 2.37,0 3.85,-1.57 3.85,-3.53 z m 0,0"
       style="fill:#ffffff;fill-rule:evenodd" />
    <path
       inkscape:connector-curvature="0"
       id="path202"
       d="m 116.87,102.46 c 0,-6.27 -3.35,-9.18 -7.83,-9.18 -3.61,0 -5.22,1.98 -6.13,3.37 l 0,-2.89 -6.8,0 c 0.09,1.91 0,20.4 0,20.4 l 6.8,0 0,-11.39 c 0,-0.61 0.04,-1.22 0.22,-1.65 0.49,-1.22 1.61,-2.48 3.49,-2.48 2.46,0 3.44,1.87 3.44,4.61 l 0,10.91 6.8,0 0,-11.7 z m 0,0"
       style="fill:#ffffff;fill-rule:evenodd" />
  </g>
  <g
     id="g4489"
     transform="matrix(0.33344038,0,0,0.33379638,0,-0.05911742)">
    <path
       inkscape:connector-curvature="0"
       id="path238"
       d="M 0,30.14 C 0,13.59 13.43,0.18 29.99,0.18 46.55,0.18 59.98,13.59 59.98,30.14 59.98,46.69 46.55,60.1 29.99,60.1 13.43,60.1 0,46.68 0,30.14 Z m 0,0"
       style="fill:#4099ff;fill-rule:evenodd" />
    <path
       inkscape:connector-curvature="0"
       id="path240"
       d="m 29.25,24.04 0.06,1.04 -1.05,-0.13 c -3.81,-0.49 -7.14,-2.14 -9.97,-4.91 l -1.38,-1.38 -0.36,1.02 c -0.75,2.26 -0.27,4.65 1.3,6.26 0.84,0.89 0.65,1.02 -0.8,0.49 -0.5,-0.17 -0.94,-0.3 -0.98,-0.23 -0.15,0.15 0.36,2.07 0.75,2.83 0.54,1.06 1.65,2.09 2.87,2.71 l 1.03,0.49 -1.21,0.02 c -1.17,0 -1.21,0.02 -1.09,0.47 0.42,1.38 2.07,2.83 3.92,3.47 l 1.3,0.44 -1.13,0.68 c -1.68,0.97 -3.64,1.52 -5.61,1.57 -0.94,0.02 -1.72,0.11 -1.72,0.17 0,0.21 2.56,1.4 4.04,1.86 4.46,1.38 9.76,0.78 13.74,-1.57 2.83,-1.67 5.66,-4.99 6.98,-8.21 0.71,-1.71 1.42,-4.84 1.42,-6.35 0,-0.97 0.06,-1.1 1.24,-2.26 0.69,-0.68 1.34,-1.42 1.47,-1.63 0.21,-0.4 0.19,-0.4 -0.88,-0.04 -1.78,0.63 -2.03,0.55 -1.15,-0.4 0.65,-0.68 1.42,-1.9 1.42,-2.26 0,-0.06 -0.31,0.04 -0.67,0.23 -0.38,0.21 -1.21,0.53 -1.84,0.72 l -1.13,0.36 -1.03,-0.7 c -0.57,-0.38 -1.36,-0.8 -1.78,-0.93 -1.07,-0.3 -2.7,-0.25 -3.67,0.08 -2.62,0.95 -4.27,3.41 -4.08,6.09 z m 0,0"
       style="fill:#ffffff;fill-rule:evenodd" />
  </g>
  <g
     id="g4485"
     transform="matrix(0.33295923,0,0,0.33379638,1.7003368,-0.05911672)">
    <path
       inkscape:connector-curvature="0"
       id="path245"
       d="m 69.98,30.14 c 0,-16.55 13.45,-29.96 30.03,-29.96 16.59,0 30.03,13.41 30.03,29.96 0,16.55 -13.45,29.96 -30.03,29.96 -16.59,0 -30.03,-13.41 -30.03,-29.96 z m 0,0"
       style="fill:#3b5998;fill-rule:evenodd" />
    <path
       inkscape:connector-curvature="0"
       id="path247"
       d="m 102.52,46.44 0,-16.3 4.5,0 0.6,-5.62 -5.1,0 0.01,-2.81 c 0,-1.46 0.14,-2.25 2.25,-2.25 l 2.82,0 0,-5.62 -4.5,0 c -5.41,0 -7.32,2.72 -7.32,7.31 l 0,3.37 -3.37,0 0,5.62 3.37,0 0,16.3 6.75,0 z m 0,0"
       style="fill:#ffffff;fill-rule:evenodd" />
  </g>
  <g
     transform="matrix(0.33285233,0,0,0.33333333,124.73372,0.0011574)"
     id="Instagram"
     style="fill:none">
    <g
       id="g4462">
      <path
         d="M 0.8,30 C 0.8,13.43 14.25,0 30.84,0 47.43,0 60.88,13.43 60.88,30 60.88,46.57 47.43,60 30.84,60 14.25,60 0.8,46.57 0.8,30 Z m 0,0"
         id="path288"
         inkscape:connector-curvature="0"
         style="fill:#517fa4" />
      <path
         d="m 18.87,27.2 c 0,4.52 0,9.03 0,13.55 0,0.65 0.56,1.21 1.21,1.21 7.17,0 14.34,0 21.51,0 0.66,0 1.22,-0.56 1.22,-1.21 0,-4.51 0,-9.02 0,-13.53 l 0,-0.09 -2.92,0 c 0.41,1.31 0.54,2.65 0.38,4.01 -0.16,1.36 -0.6,2.63 -1.32,3.8 -0.72,1.17 -1.65,2.14 -2.78,2.92 -2.95,2.01 -6.83,2.18 -9.96,0.43 -1.58,-0.89 -2.82,-2.12 -3.69,-3.71 -1.29,-2.37 -1.5,-4.87 -0.74,-7.45 -0.97,0 -1.93,0 -2.91,0 z m 24.67,17.97 c -0.16,0.03 -0.32,0.06 -0.48,0.08 l -24.45,0 c -0.06,-0.01 -0.13,-0.02 -0.2,-0.03 -1.34,-0.17 -2.47,-1.2 -2.77,-2.52 -0.03,-0.15 -0.06,-0.31 -0.09,-0.47 l 0,-24.48 c 0.01,-0.06 0.02,-0.11 0.03,-0.17 0.19,-1.37 1.19,-2.46 2.55,-2.77 0.15,-0.03 0.29,-0.05 0.44,-0.08 l 24.51,0 c 0.06,0.01 0.11,0.02 0.17,0.03 1.39,0.19 2.52,1.25 2.78,2.62 0.03,0.13 0.04,0.27 0.07,0.4 l 0,24.41 c -0.02,0.14 -0.04,0.27 -0.07,0.41 -0.24,1.25 -1.26,2.29 -2.51,2.56 z M 24.65,29.91 c -0.05,3.46 2.72,6.2 6.05,6.27 3.46,0.07 6.26,-2.69 6.33,-6.04 0.07,-3.46 -2.72,-6.32 -6.19,-6.32 -3.39,0 -6.14,2.72 -6.19,6.09 z m 16.99,-7.34 c 0.65,-0.02 1.17,-0.57 1.17,-1.22 0,-0.96 0,-1.93 0,-2.89 0,-0.69 -0.55,-1.24 -1.24,-1.24 -0.96,0 -1.92,0 -2.89,0 -0.69,0 -1.24,0.55 -1.24,1.24 0,0.95 0,1.91 0,2.86 0,0.14 0.03,0.29 0.07,0.43 0.17,0.51 0.64,0.82 1.21,0.82 0.46,0 0.93,0 1.39,0 0.5,-0.01 1.01,0 1.51,-0.01 z m 0,0"
         id="path290"
         inkscape:connector-curvature="0"
         style="fill:#ffffff" />
    </g>
  </g>
  <g
     id="g4476"
     transform="matrix(0.3329592,0,0,0.33379638,30.101016,-0.05911742)">
    <path
       inkscape:connector-curvature="0"
       id="path295"
       d="m 209.93,30.14 c 0,-16.55 13.45,-29.96 30.03,-29.96 16.59,0 30.03,13.41 30.03,29.96 0,16.55 -13.45,29.96 -30.03,29.96 -16.59,0 -30.03,-13.41 -30.03,-29.96 z m 0,0"
       style="fill:#cb2027;fill-rule:evenodd" />
    <path
       inkscape:connector-curvature="0"
       id="path297"
       d="m 227.19,25.8 c 0,3.3 1.25,6.23 3.94,7.33 0.44,0.18 0.83,0.01 0.96,-0.48 0.09,-0.34 0.3,-1.19 0.39,-1.54 0.13,-0.48 0.08,-0.65 -0.28,-1.07 -0.77,-0.91 -1.27,-2.09 -1.27,-3.76 0,-4.85 3.63,-9.18 9.46,-9.18 5.16,0 8,3.15 8,7.35 0,5.53 -2.45,10.2 -6.09,10.2 -2.01,0 -3.52,-1.66 -3.03,-3.69 0.58,-2.43 1.7,-5.05 1.7,-6.8 0,-1.57 -0.84,-2.88 -2.59,-2.88 -2.06,0 -3.71,2.12 -3.71,4.96 0,1.81 0.61,3.03 0.61,3.03 0,0 -2.1,8.89 -2.47,10.45 -0.73,3.1 -0.11,6.9 -0.06,7.29 0.03,0.23 0.32,0.28 0.46,0.11 0.19,-0.25 2.64,-3.26 3.47,-6.27 0.24,-0.85 1.35,-5.27 1.35,-5.27 0.67,1.27 2.62,2.39 4.7,2.39 6.18,0 10.37,-5.62 10.37,-13.14 0,-5.69 -4.83,-10.98 -12.17,-10.98 -9.13,0 -13.74,6.53 -13.74,11.98 z m 0,0"
       style="fill:#ffffff;fill-rule:evenodd" />
  </g>
</svg>
