<?xml version="1.0" encoding="UTF-8"?>
<svg width="730px" height="372px" viewBox="0 0 730 372" version="1.1" xmlns="http://www.w3.org/2000/svg" xmlns:xlink="http://www.w3.org/1999/xlink">
    <!-- Generator: Sketch 51.1 (57501) - http://www.bohemiancoding.com/sketch -->
    <title>home copy</title>
    <desc>Created with Sketch.</desc>
    <defs></defs>
    <g id="home-copy" stroke="none" stroke-width="1" fill="none" fill-rule="evenodd">
        <polygon id="Path-21" fill="#00AF86" fill-rule="nonzero" points="260.708984 59.1064453 164.723145 109.813965 190.711914 109.813965 190.711914 146.024414 115.119629 146.024414 73.972168 241.641602 81.059082 241.641602 81.059082 369.833008 698.181152 369.833008 698.181152 337.575195 708.899414 352.9375 708.899414 341.875488 704.034668 334.892578 704.034668 241.641602 721.739258 241.641602 672.046387 178.907715 602.940918 178.907715 602.940918 111.152344 624.178711 111.152344 426.221191 0.859863281 323.359863 58.2260742 292.304199 42.6176758"></polygon>
        <g id="Group-2" transform="translate(1.000000, 0.000000)" fill-rule="nonzero">
            <g id="Group" transform="translate(239.000000, 259.000000)" stroke="#0080B0">
                <rect id="Rectangle-Copy-10" x="0.5" y="0.5" width="27" height="33"></rect>
                <rect id="Rectangle-Copy-13" x="0.5" y="33.5" width="27" height="33"></rect>
                <rect id="Rectangle-Copy-11" x="69.5" y="0.5" width="27" height="33"></rect>
                <rect id="Rectangle-Copy-14" x="69.5" y="33.5" width="27" height="33"></rect>
                <rect id="Rectangle-Copy-12" x="27.5" y="0.5" width="42" height="33"></rect>
                <rect id="Rectangle-Copy-15" x="27.5" y="33.5" width="42" height="33"></rect>
            </g>
            <g id="Group-Copy" transform="translate(236.000000, 122.000000)" stroke="#0080B0">
                <rect id="Rectangle-Copy-10" x="0.5" y="0.5" width="27" height="33"></rect>
                <rect id="Rectangle-Copy-13" x="0.5" y="33.5" width="27" height="33"></rect>
                <rect id="Rectangle-Copy-11" x="72.5" y="0.5" width="27" height="33"></rect>
                <rect id="Rectangle-Copy-14" x="72.5" y="33.5" width="27" height="33"></rect>
                <rect id="Rectangle-Copy-12" x="27.5" y="0.5" width="45" height="33"></rect>
                <rect id="Rectangle-Copy-15" x="27.5" y="33.5" width="45" height="33"></rect>
            </g>
            <g id="Group-Copy-2" transform="translate(411.000000, 122.000000)" stroke="#0080B0">
                <rect id="Rectangle-Copy-10" x="72.5" y="0.5" width="27" height="33"></rect>
                <rect id="Rectangle-Copy-16" x="0.5" y="0.5" width="22" height="33"></rect>
                <rect id="Rectangle-Copy-17" x="22.5" y="0.5" width="23" height="33"></rect>
                <rect id="Rectangle-Copy-18" x="22.5" y="33.5" width="23" height="33"></rect>
                <rect id="Rectangle-Copy-19" x="0.5" y="33.5" width="22" height="33"></rect>
                <rect id="Rectangle-Copy-13" x="72.5" y="33.5" width="27" height="33"></rect>
                <rect id="Rectangle-Copy-11" x="144.5" y="0.5" width="27" height="33"></rect>
                <rect id="Rectangle-Copy-14" x="144.5" y="33.5" width="27" height="33"></rect>
                <rect id="Rectangle-Copy-12" x="99.5" y="0.5" width="45" height="33"></rect>
                <rect id="Rectangle-Copy-15" x="99.5" y="33.5" width="45" height="33"></rect>
            </g>
            <rect id="Rectangle" stroke="#0080B0" stroke-width="2" x="80" y="242" width="10" height="128"></rect>
            <rect id="Rectangle-Copy-3" stroke="#0080B0" stroke-width="2" x="207" y="242" width="10" height="128"></rect>
            <rect id="Rectangle-Copy-6" stroke="#0080B0" stroke-width="2" x="358" y="242" width="10" height="128"></rect>
            <rect id="Rectangle-Copy" stroke="#0080B0" stroke-width="2" x="90" y="242" width="10" height="117"></rect>
            <rect id="Rectangle-Copy-4" stroke="#0080B0" stroke-width="2" x="90" y="359" width="117" height="11"></rect>
            <rect id="Rectangle-Copy-7" stroke="#0080B0" stroke-width="2" x="217" y="359" width="141" height="11"></rect>
            <rect id="Rectangle-Copy-8" stroke="#0080B0" stroke-width="2" x="217" y="347" width="141" height="12"></rect>
            <rect id="Rectangle-Copy-9" stroke="#0080B0" stroke-width="2" x="217" y="339" width="141" height="8"></rect>
            <rect id="Rectangle-2" stroke="#0080B0" x="445.5" y="261.5" width="198" height="109"></rect>
            <rect id="Rectangle-2-Copy" stroke="#0080B0" x="455.5" y="271.5" width="178" height="99"></rect>
            <rect id="Rectangle-Copy-5" stroke="#0080B0" x="120.5" y="263.5" width="49" height="95"></rect>
            <rect id="Rectangle-Copy-2" stroke="#0080B0" stroke-width="2" x="190" y="242" width="17" height="117"></rect>
            <path d="M0,370 L729,370" id="Path-2" stroke="#0080B0" stroke-width="2"></path>
            <g id="Group-11" transform="translate(4.000000, 246.000000)" stroke="#0080B0">
                <path d="M0,58.5146121 C0,47.0354147 2.16062351,40.8754093 4.45904979,36.8703593 C7.25662925,31.9401774 8.72700296,26.3546938 8.69604773,20.676697 C8.69604773,9.20120727 17.9361857,0 29.3393208,0 C40.7385865,0 49.9825939,9.20120727 49.9825939,20.5610556 C49.9477692,26.3546938 51.4181429,31.9401774 54.2389388,36.8703593 C56.6108838,41.0450168 58,45.8595572 58,51.0094578 C58,56.1632132 56.6108838,60.9816083 54.2195918,65.1524111 C51.4181429,70.082593 49.9477692,75.6719313 49.9825939,81.3460734 C49.9825939,92.8215631 40.7385865,102.02277 29.3393208,102.02277 C26.1818867,102.02277 20.4380135,101.554353 12.9904715,95.7623363 C5.54292957,89.9703195 3.99597959e-16,69.9938095 0,58.5146121 Z" id="Stroke-1" fill="#00AF86"></path>
                <path d="M16,24.7628083 C16,31.8737999 21.8226336,37.6394687 29,37.6394687" id="Stroke-3" stroke-width="2" stroke-linecap="round" stroke-linejoin="round"></path>
                <path d="M21,78.2504744 C23.1002639,80.7078353 25.9111697,82.2125237 29,82.2125237" id="Stroke-5" stroke-width="2" stroke-linecap="round" stroke-linejoin="round"></path>
                <path d="M42,56.459203 C42,63.5723179 36.1773664,69.3358634 29,69.3358634" id="Stroke-7" stroke-width="2" stroke-linecap="round" stroke-linejoin="round"></path>
                <path d="M29,19.8102467 L29,122.823529" id="Stroke-9" stroke-width="2" stroke-linecap="round" stroke-linejoin="round"></path>
            </g>
            <polyline id="Path-3" stroke="#0080B0" stroke-width="2" points="392.003235 371.016724 392.003235 110.007507 291.026611 57.9956055 190.010254 110.007507 190.010254 220 372.047485 220 372.047485 242.012695 73.0054932 242.012695 114.022339 146.016968 189.393066 146.016968"></polyline>
            <polyline id="Path-4" stroke="#0080B0" stroke-width="2" points="392.005345 242.006476 721.007607 242.006476 671.016113 179.020264 601.943604 179.020264"></polyline>
            <path d="M696.997803,242.342725 L696.997803,371.000684" id="Path-5" stroke="#0080B0" stroke-width="2"></path>
            <polygon id="Path-13" stroke="#0080B0" stroke-width="2" points="697 242 697 250.03125 697 337.01123 708.070312 353.023438 708.070312 342.141113 703.026855 335.001709 703.026855 242"></polygon>
            <polyline id="Path-6" stroke="#0080B0" stroke-width="2" points="391.997086 218.999222 601.997482 218.999222 602.018962 111.008789 425.152344 14.4088542 333.769043 64.831665"></polyline>
            <polyline id="Path-7" stroke="#0080B0" stroke-width="2" points="601.879654 111.001755 623.009232 111.001755 425.01355 0.999023438 321.640259 58.4780273"></polyline>
            <rect id="Rectangle-11" fill="#0080B0" x="109" y="156" width="80.447728" height="1"></rect>
            <rect id="Rectangle-11-Copy-4" fill="#0080B0" x="91" y="199" width="99" height="1"></rect>
            <rect id="Rectangle-11-Copy" fill="#0080B0" x="105" y="167" width="85" height="1"></rect>
            <rect id="Rectangle-11-Copy-5" fill="#0080B0" x="87" y="209" width="103" height="1"></rect>
            <rect id="Rectangle-11-Copy-2" fill="#0080B0" x="101" y="178" width="89" height="1"></rect>
            <rect id="Rectangle-11-Copy-6" fill="#0080B0" x="82" y="220" width="109" height="1"></rect>
            <rect id="Rectangle-11-Copy-3" fill="#0080B0" x="96" y="189" width="95" height="1"></rect>
            <rect id="Rectangle-11-Copy-7" fill="#0080B0" x="78" y="231" width="294" height="1"></rect>
            <rect id="Rectangle-11-Copy-8" fill="#0080B0" x="392" y="230" width="320" height="1"></rect>
            <rect id="Rectangle-11-Copy-9" fill="#0080B0" x="600" y="219" width="103" height="1"></rect>
            <rect id="Rectangle-11-Copy-10" fill="#0080B0" x="602" y="208" width="93" height="1"></rect>
            <rect id="Rectangle-11-Copy-11" fill="#0080B0" x="602" y="198" width="85" height="1"></rect>
            <rect id="Rectangle-11-Copy-12" fill="#0080B0" x="602" y="188" width="76" height="1"></rect>
            <path d="M121.482423,156.565437 L117.031228,167.540258 M112.537951,178.61884 L108.097923,189.566128 M104.066662,199.505567 L99.9905362,209.555622 M95.5747027,220.443258 L91.0589034,231.577369" id="Path-9" stroke="#0080B0"></path>
            <path d="M138.767578,146 L134.517815,156.478173 M130.040537,167.517306 L125.569257,178.541652 M121.12959,189.48805 L117.056446,199.530755 M112.974189,209.595928 L108.545959,220.514129 M104.072348,231.544219 L100,241.584961" id="Path-9-Copy" stroke="#0080B0"></path>
            <path d="M147.531229,156.4451 L142.994614,167.630535 M138.563421,178.55604 L134.125483,189.498177 M130.051946,199.54185 L126.001371,209.528909 M121.524515,220.566999 L117.09093,231.498404" id="Path-9-Copy-2" stroke="#0080B0"></path>
            <path d="M164.767578,146 L160.521153,156.469945 M155.987038,167.649213 L151.55657,178.572931 M147.1081,189.541036 L143.062913,199.514809 M138.97003,209.606181 L134.520067,220.577967 M130.060703,231.572931 L126,241.584961" id="Path-9-Copy-3" stroke="#0080B0"></path>
            <path d="M173.502847,156.515078 L169.033695,167.534177 M164.585723,178.501052 L160.104886,189.548961 M156.06492,199.509862 L151.998593,209.535757 M147.52081,220.576135 L143.051557,231.595481" id="Path-9-Copy-4" stroke="#0080B0"></path>
            <path d="M189.726244,148.567503 L186.514119,156.487287 M181.983856,167.657058 L177.557312,178.571102 M173.091074,189.583016 L169.001679,199.665787 M164.976171,209.59104 L160.543778,220.519506 M156.074632,231.538589 L152,241.584961" id="Path-9-Copy-5" stroke="#0080B0"></path>
            <path d="M189.844939,180.327523 L186.105307,189.547923 M182.058463,199.52578 L178.001114,209.529542 M173.546291,220.513311 L169.061819,231.57018" id="Path-9-Copy-6" stroke="#0080B0"></path>
            <path d="M189.92146,213.191527 L186.961542,220.48947 M182.474934,231.551608 L178,242.584961" id="Path-9-Copy-7" stroke="#0080B0"></path>
            <path d="M200.174849,219.963543 L195.486571,231.522916" id="Path-9-Copy-8" stroke="#0080B0"></path>
            <path d="M208.468497,231.567479 L204,242.584961" id="Path-9-Copy-9" stroke="#0080B0"></path>
            <path d="M226.224245,219.841754 L221.461618,231.58444" id="Path-9-Copy-10" stroke="#0080B0"></path>
            <path d="M234.452683,231.60647 L230,242.584961" id="Path-9-Copy-11" stroke="#0080B0"></path>
            <path d="M252.183085,219.943236 L247.497462,231.496062" id="Path-9-Copy-12" stroke="#0080B0"></path>
            <path d="M260.464424,231.577522 L256,242.584961" id="Path-9-Copy-13" stroke="#0080B0"></path>
            <path d="M278.140643,220.047881 L273.505604,231.475988" id="Path-9-Copy-14" stroke="#0080B0"></path>
            <path d="M286.464311,231.5778 L282,242.584961" id="Path-9-Copy-15" stroke="#0080B0"></path>
            <path d="M304.144908,220.037366 L299.477877,231.544351" id="Path-9-Copy-16" stroke="#0080B0"></path>
            <path d="M312.474109,231.553641 L308,242.584961" id="Path-9-Copy-17" stroke="#0080B0"></path>
            <path d="M330.129499,220.075357 L325.497831,231.495152" id="Path-9-Copy-18" stroke="#0080B0"></path>
            <path d="M338.491813,231.509992 L334,242.584961" id="Path-9-Copy-19" stroke="#0080B0"></path>
            <path d="M356.099156,220.150171 L351.467472,231.570006" id="Path-9-Copy-20" stroke="#0080B0"></path>
            <path d="M364.46894,231.566386 L360,242.584961" id="Path-9-Copy-21" stroke="#0080B0"></path>
            <polyline id="Path-8" stroke="#0080B0" stroke-width="2" points="190.021606 110.009949 162.988403 110.009949 291.282227 42.6396484 422.023315 110.009949 391.999329 110.009949"></polyline>
            <path d="M666.585258,188.546967 L674.525775,198.541072 M682.39797,208.449185 L691.29997,219.653433 M699.962175,230.555868 L708.924805,241.836426" id="Path-10" stroke="#0080B0"></path>
            <path d="M646,179 L653.508534,188.450401 M661.475756,198.478117 L669.515782,208.597465 M678.262787,219.606633 L686.996201,230.598695" id="Path-10-Copy" stroke="#0080B0"></path>
            <path d="M640.508119,188.449879 L648.554343,198.577028 M656.516479,208.598343 L665.330692,219.692099 M673.995597,230.597934 L682.924805,241.836426" id="Path-10-Copy-2" stroke="#0080B0"></path>
            <path d="M620,179 L627.467666,188.398964 M635.536421,198.554472 L643.407684,208.461411 M652.212081,219.542813 L660.925687,230.509944" id="Path-10-Copy-3" stroke="#0080B0"></path>
            <path d="M614.546372,188.498025 L622.464404,198.463829 M630.433046,208.493332 L639.227914,219.562741 M647.978238,230.576085 L656.924805,241.836426" id="Path-10-Copy-4" stroke="#0080B0"></path>
            <path d="M608.717493,198.523751 L616.64738,208.504476 M625.386161,219.503293 L634.176173,230.56659" id="Path-10-Copy-5" stroke="#0080B0"></path>
            <path d="M604.487256,208.561562 L613.168817,219.48836 M621.945946,230.535442 L630.924805,241.836426" id="Path-10-Copy-6" stroke="#0080B0"></path>
            <path d="M599.921818,219.177482 L608.958516,230.551264" id="Path-10-Copy-7" stroke="#0080B0"></path>
            <path d="M596.009317,230.615203 L604.924805,241.836426" id="Path-10-Copy-8" stroke="#0080B0"></path>
            <path d="M569.995823,230.598219 L578.924805,241.836426" id="Path-10-Copy-9" stroke="#0080B0"></path>
            <path d="M547.879119,219.123741 L557.001981,230.605969" id="Path-10-Copy-11" stroke="#0080B0"></path>
            <path d="M543.989324,230.590039 L552.924805,241.836426" id="Path-10-Copy-12" stroke="#0080B0"></path>
            <path d="M521.834673,219.067799 L530.989394,230.590127" id="Path-10-Copy-13" stroke="#0080B0"></path>
            <path d="M518.01989,230.628511 L526.924805,241.836426" id="Path-10-Copy-14" stroke="#0080B0"></path>
            <path d="M495.897778,219.147225 L504.920387,230.503273" id="Path-10-Copy-15" stroke="#0080B0"></path>
            <path d="M491.9224,230.505807 L500.924805,241.836426" id="Path-10-Copy-16" stroke="#0080B0"></path>
            <path d="M469.879147,219.123775 L478.926549,230.511029" id="Path-10-Copy-17" stroke="#0080B0"></path>
            <path d="M465.939567,230.527414 L474.924805,241.836426" id="Path-10-Copy-18" stroke="#0080B0"></path>
            <path d="M442.999093,219.016121 L452.138303,230.518925" id="Path-10-Copy-19" stroke="#0080B0"></path>
            <path d="M439.166538,230.554463 L448.924805,242.836426" id="Path-10-Copy-20" stroke="#0080B0"></path>
            <path d="M417.160661,219.219473 L426.128075,230.506052" id="Path-10-Copy-21" stroke="#0080B0"></path>
            <path d="M413.192189,230.586747 L422.924805,242.836426" id="Path-10-Copy-22" stroke="#0080B0"></path>
            <path d="M392.112021,220.416876 L400.200138,230.596752" id="Path-10-Copy-23" stroke="#0080B0"></path>
            <path d="M573.803992,219.029184 L582.976247,230.57358" id="Path-10-Copy-10" stroke="#0080B0"></path>
            <rect id="Rectangle-4" fill="#0080B0" x="455" y="282" width="179" height="1"></rect>
            <rect id="Rectangle-4-Copy" fill="#0080B0" x="455" y="294" width="179" height="1"></rect>
            <rect id="Rectangle-4-Copy-2" fill="#0080B0" x="455" y="306" width="179" height="1"></rect>
            <rect id="Rectangle-4-Copy-3" fill="#0080B0" x="455" y="319" width="179" height="1"></rect>
            <rect id="Rectangle-4-Copy-4" fill="#0080B0" x="455" y="332" width="179" height="1"></rect>
            <rect id="Rectangle-4-Copy-5" fill="#0080B0" x="455" y="345" width="179" height="1"></rect>
            <rect id="Rectangle-4-Copy-6" fill="#0080B0" x="455" y="358" width="179" height="1"></rect>
            <rect id="Rectangle-5" fill="#0080B0" x="200" y="105" width="1" height="114"></rect>
            <rect id="Rectangle-5-Copy" fill="#0080B0" x="209" y="100" width="1" height="120"></rect>
            <rect id="Rectangle-5-Copy-2" fill="#0080B0" x="218" y="96" width="1" height="123"></rect>
            <rect id="Rectangle-5-Copy-3" fill="#0080B0" x="227" y="91" width="1" height="128"></rect>
            <rect id="Rectangle-5-Copy-4" fill="#0080B0" x="236" y="86" width="1" height="134"></rect>
            <rect id="Rectangle-5-Copy-5" fill="#0080B0" x="245" y="82" width="1" height="41"></rect>
            <rect id="Rectangle-5-Copy-21" fill="#0080B0" x="245" y="189" width="1" height="30"></rect>
            <rect id="Rectangle-5-Copy-22" fill="#0080B0" x="254" y="189" width="1" height="30"></rect>
            <rect id="Rectangle-5-Copy-23" fill="#0080B0" x="263" y="189" width="1" height="30"></rect>
            <rect id="Rectangle-5-Copy-24" fill="#0080B0" x="272" y="189" width="1" height="30"></rect>
            <rect id="Rectangle-5-Copy-25" fill="#0080B0" x="281" y="189" width="1" height="30"></rect>
            <rect id="Rectangle-5-Copy-26" fill="#0080B0" x="290" y="189" width="1" height="30"></rect>
            <rect id="Rectangle-5-Copy-27" fill="#0080B0" x="299" y="189" width="1" height="30"></rect>
            <rect id="Rectangle-5-Copy-28" fill="#0080B0" x="308" y="189" width="1" height="30"></rect>
            <rect id="Rectangle-5-Copy-29" fill="#0080B0" x="317" y="189" width="1" height="30"></rect>
            <rect id="Rectangle-5-Copy-30" fill="#0080B0" x="326" y="189" width="1" height="30"></rect>
            <rect id="Rectangle-5-Copy-6" fill="#0080B0" x="254" y="77" width="1" height="45"></rect>
            <rect id="Rectangle-5-Copy-7" fill="#0080B0" x="263" y="73" width="1" height="50"></rect>
            <rect id="Rectangle-5-Copy-8" fill="#0080B0" x="272" y="68" width="1" height="54"></rect>
            <rect id="Rectangle-5-Copy-9" fill="#0080B0" x="281" y="63" width="1" height="60"></rect>
            <rect id="Rectangle-5-Copy-10" fill="#0080B0" x="290" y="58" width="1" height="64"></rect>
            <rect id="Rectangle-5-Copy-11" fill="#0080B0" x="299" y="62" width="1" height="61"></rect>
            <rect id="Rectangle-5-Copy-12" fill="#0080B0" x="308" y="66" width="1" height="113"></rect>
            <rect id="Rectangle-5-Copy-13" fill="#0080B0" x="317" y="71" width="1" height="52"></rect>
            <rect id="Rectangle-5-Copy-14" fill="#0080B0" x="326" y="76" width="1" height="46"></rect>
            <rect id="Rectangle-5-Copy-15" fill="#0080B0" x="335" y="80" width="1" height="140"></rect>
            <rect id="Rectangle-5-Copy-16" fill="#0080B0" x="344" y="86" width="1" height="134"></rect>
            <rect id="Rectangle-5-Copy-17" fill="#0080B0" x="353" y="90" width="1" height="130"></rect>
            <rect id="Rectangle-5-Copy-18" fill="#0080B0" x="362" y="94" width="1" height="125"></rect>
            <rect id="Rectangle-5-Copy-19" fill="#0080B0" x="372" y="99" width="1" height="271"></rect>
            <rect id="Rectangle-5-Copy-20" fill="#0080B0" x="381" y="104" width="1" height="267"></rect>
            <rect id="Rectangle-5-Copy-31" fill="#0080B0" x="402" y="111" width="1" height="108"></rect>
            <rect id="Rectangle-5-Copy-32" fill="#0080B0" x="411" y="111" width="1" height="108"></rect>
            <rect id="Rectangle-5-Copy-33" fill="#0080B0" x="411" y="22" width="1" height="82"></rect>
            <rect id="Rectangle-5-Copy-41" fill="#0080B0" x="420" y="17" width="1" height="106"></rect>
            <rect id="Rectangle-5-Copy-42" fill="#0080B0" x="429" y="17" width="1" height="106"></rect>
            <rect id="Rectangle-5-Copy-43" fill="#0080B0" x="438" y="22" width="1" height="101"></rect>
            <rect id="Rectangle-5-Copy-44" fill="#0080B0" x="447" y="26" width="1" height="97"></rect>
            <rect id="Rectangle-5-Copy-45" fill="#0080B0" x="456" y="31" width="1" height="187"></rect>
            <rect id="Rectangle-5-Copy-46" fill="#0080B0" x="465" y="37" width="1" height="182"></rect>
            <rect id="Rectangle-5-Copy-47" fill="#0080B0" x="474" y="41" width="1" height="178"></rect>
            <rect id="Rectangle-5-Copy-48" fill="#0080B0" x="483" y="46" width="1" height="173"></rect>
            <rect id="Rectangle-5-Copy-49" fill="#0080B0" x="492" y="51" width="1" height="72"></rect>
            <rect id="Rectangle-5-Copy-60" fill="#0080B0" x="491" y="188" width="1" height="32"></rect>
            <rect id="Rectangle-5-Copy-71" fill="#0080B0" x="420" y="188" width="1" height="32"></rect>
            <rect id="Rectangle-5-Copy-72" fill="#0080B0" x="429" y="188" width="1" height="32"></rect>
            <rect id="Rectangle-5-Copy-73" fill="#0080B0" x="438" y="188" width="1" height="32"></rect>
            <rect id="Rectangle-5-Copy-74" fill="#0080B0" x="447" y="188" width="1" height="32"></rect>
            <rect id="Rectangle-5-Copy-61" fill="#0080B0" x="501" y="188" width="1" height="32"></rect>
            <rect id="Rectangle-5-Copy-62" fill="#0080B0" x="510" y="188" width="1" height="32"></rect>
            <rect id="Rectangle-5-Copy-63" fill="#0080B0" x="519" y="188" width="1" height="32"></rect>
            <rect id="Rectangle-5-Copy-64" fill="#0080B0" x="528" y="188" width="1" height="32"></rect>
            <rect id="Rectangle-5-Copy-65" fill="#0080B0" x="537" y="188" width="1" height="32"></rect>
            <rect id="Rectangle-5-Copy-66" fill="#0080B0" x="546" y="188" width="1" height="32"></rect>
            <rect id="Rectangle-5-Copy-67" fill="#0080B0" x="555" y="188" width="1" height="32"></rect>
            <rect id="Rectangle-5-Copy-68" fill="#0080B0" x="564" y="188" width="1" height="32"></rect>
            <rect id="Rectangle-5-Copy-69" fill="#0080B0" x="573" y="188" width="1" height="32"></rect>
            <rect id="Rectangle-5-Copy-50" fill="#0080B0" x="501" y="56" width="1" height="66"></rect>
            <rect id="Rectangle-5-Copy-51" fill="#0080B0" x="510" y="61" width="1" height="64"></rect>
            <rect id="Rectangle-5-Copy-52" fill="#0080B0" x="519" y="66" width="1" height="57"></rect>
            <rect id="Rectangle-5-Copy-53" fill="#0080B0" x="528" y="71" width="1" height="51"></rect>
            <rect id="Rectangle-5-Copy-54" fill="#0080B0" x="537" y="76" width="1" height="47"></rect>
            <rect id="Rectangle-5-Copy-55" fill="#0080B0" x="546" y="80" width="1" height="43"></rect>
            <rect id="Rectangle-5-Copy-56" fill="#0080B0" x="555" y="86" width="1" height="37"></rect>
            <rect id="Rectangle-5-Copy-57" fill="#0080B0" x="564" y="90" width="1" height="33"></rect>
            <rect id="Rectangle-5-Copy-58" fill="#0080B0" x="573" y="95" width="1" height="28"></rect>
            <rect id="Rectangle-5-Copy-59" fill="#0080B0" x="582" y="100" width="1" height="118"></rect>
            <rect id="Rectangle-5-Copy-70" fill="#0080B0" x="591" y="106" width="1" height="113"></rect>
            <rect id="Rectangle-5-Copy-34" fill="#0080B0" x="402" y="26" width="1" height="73"></rect>
            <rect id="Rectangle-5-Copy-35" fill="#0080B0" x="393" y="31" width="1" height="64"></rect>
            <rect id="Rectangle-5-Copy-36" fill="#0080B0" x="384" y="36" width="1" height="54"></rect>
            <rect id="Rectangle-5-Copy-37" fill="#0080B0" x="375" y="42" width="1" height="44"></rect>
            <rect id="Rectangle-5-Copy-38" fill="#0080B0" x="366" y="46" width="1" height="35"></rect>
            <rect id="Rectangle-5-Copy-39" fill="#0080B0" x="357" y="51" width="1" height="25"></rect>
            <rect id="Rectangle-5-Copy-40" fill="#0080B0" x="348" y="56" width="1" height="16"></rect>
        </g>
    </g>
</svg>