<?xml version="1.0" encoding="UTF-8"?>
<svg width="70px" height="50px" viewBox="0 0 70 50" version="1.1" xmlns="http://www.w3.org/2000/svg" xmlns:xlink="http://www.w3.org/1999/xlink">
    <!-- Generator: Sketch 52.2 (67145) - http://www.bohemiancoding.com/sketch -->
    <title>youtube-2</title>
    <desc>Created with Sketch.</desc>
    <g id="Page-1" stroke="none" stroke-width="1" fill="none" fill-rule="evenodd" opacity="0.7">
        <g id="03_Chip's_New_Roofing" transform="translate(-565.000000, -3315.000000)" fill="#FFFFFF" fill-rule="nonzero">
            <g id="Group-67-Copy" transform="translate(110.000000, 3070.000000)">
                <g id="youtube-2" transform="translate(455.000000, 245.000000)">
                    <path d="M55.461897,0 L14.538103,0 C6.50892297,0 0,6.57018662 0,14.6749393 L0,35.3250607 C0,43.4298134 6.50892297,50 14.538103,50 L55.461897,50 C63.491077,50 70,43.4298134 70,35.3250607 L70,14.6749393 C70,6.57018662 63.491077,0 55.461897,0 Z M47.6298793,26.0047024 L28.4884892,35.2199156 C27.9784469,35.4654585 27.3892942,35.0900937 27.3892942,34.519766 L27.3892942,15.5133409 C27.3892942,14.9348898 27.9939349,14.5599848 28.5050401,14.821468 L47.6464303,24.6126799 C48.2155397,24.9037448 48.2056698,25.7275854 47.6298793,26.0047024 Z" id="Shape"></path>
                </g>
            </g>
        </g>
    </g>
</svg>