<?xml version="1.0" encoding="UTF-8"?>
<svg width="340px" height="510px" viewBox="0 0 340 510" version="1.1" xmlns="http://www.w3.org/2000/svg" xmlns:xlink="http://www.w3.org/1999/xlink">
    <!-- Generator: Sketch 52.3 (67297) - http://www.bohemiancoding.com/sketch -->
    <title>sprite</title>
    <desc>Created with Sketch.</desc>
    <g id="sprite" stroke="none" stroke-width="1" fill="none" fill-rule="evenodd">
        <g id="Group-12" transform="translate(0.000000, 101.000000)">
            <circle id="SVGID_1_" fill-opacity="0.346693841" fill="#0080B0" cx="15" cy="15" r="15"></circle>
            <path d="M18.5820896,8.00261176 L16.8059701,8.00261176 C16.8059701,8.00261176 13.7761194,7.80264907 13.7761194,10.9020708 L13.7761194,13.001679 L12,13.001679 L12,14.7013618 L13.7761194,14.7013618 L13.7761194,22 L16.1791045,22 L16.1791045,14.7013618 L18.4776119,14.7013618 L19,13.001679 L16.1791045,13.001679 L16.1791045,10.8020894 C16.1791045,10.8020894 16.1791045,10.0022386 17.119403,10.0022386 L18.5820896,10.0022386 L18.5820896,8.00261176 Z" id="Shape" fill="#FFFFFF"></path>
        </g>
        <g id="Group-16" transform="translate(90.000000, 101.000000)">
            <path d="M15,0 C6.7,0 0,6.7 0,15 C0,23.3 6.7,30 15,30 C23.3,30 30,23.3 30,15 C30,6.7 23.2,0 15,0 Z" id="Shape" fill-opacity="0.346693841" fill="#0080B0"></path>
            <path d="M21.3783784,11.9243697 L21.3783784,12.3277311 C21.3783784,16.3613445 18.3378378,21 12.6621622,21 C10.9391892,21 9.31756757,20.4957983 8,19.5882353 L8.70945946,19.5882353 C10.1283784,19.5882353 11.4459459,19.0840336 12.5608108,18.2773109 C11.2432432,18.2773109 10.1283784,17.3697479 9.72297297,16.1596639 C9.92567568,16.1596639 10.1283784,16.2605042 10.3310811,16.2605042 C10.6351351,16.2605042 10.8378378,16.2605042 11.1418919,16.1596639 C9.72297297,15.8571429 8.70945946,14.6470588 8.70945946,13.1344538 L8.70945946,13.1344538 C9.11486486,13.3361345 9.62162162,13.5378151 10.1283784,13.5378151 C9.31756757,13.0336134 8.81081081,12.0252101 8.81081081,11.0168067 C8.81081081,10.4117647 8.91216216,9.90756303 9.21621622,9.50420168 C10.7364865,11.3193277 12.9662162,12.5294118 15.5,12.7310924 C15.3986486,12.5294118 15.3986486,12.2268908 15.3986486,12.0252101 C15.3986486,10.3109244 16.8175676,9 18.4391892,9 C19.3513514,9 20.1621622,9.40336134 20.6689189,10.0084034 C21.3783784,9.90756303 21.9864865,9.60504202 22.5945946,9.30252101 C22.3918919,10.0084034 21.8851351,10.6134454 21.277027,11.0168067 C21.8851351,10.9159664 22.4932432,10.8151261 23,10.512605 C22.4932432,10.9159664 21.9864865,11.5210084 21.3783784,11.9243697" id="Shape" fill="#FFFFFF"></path>
        </g>
        <g id="Group-17" transform="translate(60.000000, 101.000000)">
            <g id="Group-15">
                <path d="M15,0 C6.7,0 0,6.7 0,15 C0,23.3 6.7,30 15,30 C23.3,30 30,23.3 30,15 C30,6.7 23.2,0 15,0 Z" id="Shape" fill-opacity="0.346693841" fill="#0080B0"></path>
                <path d="M12.6535433,22 C8.96850394,22 6,19.1 6,15.5 C6,11.9 8.96850394,9 12.6535433,9 C14.496063,9 15.9291339,9.6 17.1574803,10.7 L15.3149606,12.4 C14.8031496,11.9 13.984252,11.4 12.6535433,11.4 C10.4015748,11.4 8.55905512,13.2 8.55905512,15.5 C8.55905512,17.8 10.4015748,19.6 12.6535433,19.6 C15.3149606,19.6 16.2362205,17.7 16.4409449,16.8 L12.6535433,16.8 L12.6535433,14.6 L18.8976378,14.6 C19,14.9 19,15.3 19,15.7 C19,19.4 16.4409449,22 12.6535433,22 Z" id="Shape" fill="#FFFFFF"></path>
            </g>
            <polygon id="Shape" fill="#FFFFFF" points="27 15.9642857 25.0714286 15.9642857 25.0714286 18 23.0357143 18 23.0357143 15.9642857 21 15.9642857 21 14.0357143 23.0357143 14.0357143 23.0357143 12 25.0714286 12 25.0714286 14.0357143 27 14.0357143"></polygon>
        </g>
        <g id="Group-10" transform="translate(30.000000, 101.000000)">
            <path d="M15,0 C6.7,0 0,6.7 0,15 C0,23.3 6.7,30 15,30 C23.3,30 30,23.3 30,15 C30,6.7 23.2,0 15,0 Z" id="Shape-Copy" fill-opacity="0.346693841" fill="#0080B0"></path>
            <path d="M10.675998,6.78810594 C11.5460628,6.10216253 13.2188509,5.90556376 13.9071458,6.03944563 C14.5960825,6.17248269 14.9558521,6.55896198 14.960264,7.02955996 L14.999971,13.0299054 C15.0030593,13.5011471 14.759162,13.9342919 14.4575091,13.9926239 C14.1542518,14.0496685 13.7080092,13.7695947 13.4627081,13.3687134 L10.3239292,8.22363494 C10.080473,7.82223072 9.58975055,7.64518321 10.675998,6.78810594 Z M10.0799691,18.9600234 L13.1439554,17.7126611 C13.5709177,17.538493 13.9533133,17.0538824 13.9962856,16.6327562 C14.0377413,16.2118089 13.7273682,15.7119424 13.3063948,15.5202814 L10.0697413,14.0438566 C9.64845675,13.8522851 9.16242206,14.3066075 9.03420503,15.050032 C9.03420503,15.050032 8.95724371,17.6389316 9.03420503,18.1749471 C9.11206081,18.7105151 9.65308455,19.1349968 10.0799691,18.9600234 Z M14.9997545,19.0022972 C15.0089263,18.4826479 14.7599389,18.034441 14.4464317,18.0024136 C14.1328054,17.9699881 13.6349101,18.2681438 13.3375626,18.6638859 L11.1554395,21.5792656 C10.8582905,21.9754501 11.0059121,22.9059262 11.4389698,23.082077 L13.7207117,23.965087 C14.1550399,24.1411494 14.9199086,23.6200845 14.9288025,23.102072 L14.9997545,19.0022972 Z M21.322898,18.9607927 L18.3349426,18.0967401 C17.8505065,17.9567001 17.3005136,17.9699147 17.1143788,18.1284901 C16.9279838,18.2852337 16.9741598,18.7806727 17.2182206,19.2278325 L19.1039355,22.6993072 C19.3477794,23.1462926 20.3228951,23.0697525 20.5914529,22.6359817 C20.5914529,22.6359817 21.7280761,20.9492213 21.9371038,20.3170133 C22.1460881,19.683366 21.8069439,19.1008327 21.322898,18.9607927 Z M21.9347507,13.2236524 C21.8076548,12.8309037 20.9253951,11.6729406 20.4476392,11.2782416 C19.9702928,10.8826845 19.4243211,10.9322608 19.1164494,11.2795288 L17.2979634,13.343166 C16.9899279,13.690395 16.9075449,14.2411559 17.1129701,14.5650205 C17.3182315,14.8888851 17.865882,15.072368 18.3306171,14.9729814 L21.4760755,14.4173838 C22.0438713,14.2876117 22.0639348,13.6164011 21.9347507,13.2236524 Z" id="Yelp" fill="#FFFFFF" fill-rule="nonzero"></path>
        </g>
        <g id="Group" fill="#FFFFFF">
            <polygon id="Fill-1" points="39.8493446 45.6230555 39.8493446 66.422588 35.0259548 66.422588 35.0259548 57.8947797 25.5578192 57.8947797 25.5578192 66.422588 20.7353898 66.422588 20.7353898 45.6230555 25.5578192 45.6230555 25.5578192 53.824014 35.0259548 53.824014 35.0259548 45.6230555"></polygon>
            <polygon id="Fill-2" points="43.7918079 66.4228755 48.6142373 66.4228755 48.6142373 45.6233431 43.7918079 45.6233431"></polygon>
            <path d="M64.614791,55.8300666 C65.3687458,55.2060807 65.7471638,54.3194646 65.7471638,53.1702186 C65.7471638,52.0018025 65.3687458,51.1056014 64.614791,50.4816154 C63.8598757,49.8576295 62.7582373,49.5451572 61.3108362,49.5451572 L57.3806667,49.5451572 L57.3806667,56.7655663 L61.3108362,56.7655663 C62.7582373,56.7655663 63.8598757,56.4540526 64.614791,55.8300666 M66.3868249,46.5440818 C67.7458644,47.1584828 68.7937175,48.0297627 69.5275028,49.1588802 C70.2622486,50.2879977 70.6301017,51.6251105 70.6301017,53.1702186 C70.6301017,54.6961566 70.2622486,56.0284769 69.5275028,57.1671794 C68.7937175,58.3058819 67.7458644,59.1781204 66.3868249,59.7819778 C65.0268249,60.3858352 63.424791,60.6877639 61.5778418,60.6877639 L57.3806667,60.6877639 L57.3806667,66.4224921 L52.5563164,66.4224921 L52.5563164,45.6229597 L61.5778418,45.6229597 C63.424791,45.6229597 65.0268249,45.9306394 66.3868249,46.5440818" id="Fill-3"></path>
            <path d="M77.4439322,44.9246897 C77.9798644,45.4499497 78.2478305,46.139114 78.2478305,46.9902653 C78.2478305,47.3861274 78.197887,47.7819895 78.0999209,48.1788101 C78.0000339,48.5756306 77.7906554,49.1689445 77.4737062,49.9616271 L75.7468136,54.2403881 L72.7991864,54.2403881 L74.0794689,49.5456365 C73.5819548,49.3280561 73.1958531,49.0002478 72.9182825,48.5650871 C72.6407119,48.1289679 72.5014463,47.6037078 72.5014463,46.9902653 C72.5014463,46.139114 72.7742147,45.4499497 73.3197514,44.9246897 C73.8652881,44.4003881 74.5558531,44.137758 75.388565,44.137758 C76.2231977,44.137758 76.908,44.4003881 77.4439322,44.9246897" id="Fill-5"></path>
            <path d="M25.6930508,78.8168089 C26.0772316,78.5024196 26.269322,78.0538399 26.269322,77.4710695 C26.269322,76.8882992 26.0772316,76.4416365 25.6930508,76.1310812 C25.3088701,75.820526 24.7518079,75.6652484 24.0218644,75.6652484 L22.0625424,75.6652484 L22.0625424,79.2883928 L24.0218644,79.2883928 C24.7518079,79.2883928 25.3088701,79.1311981 25.6930508,78.8168089 Z M26.3038983,82.7160023 L24.5635593,80.2430625 C24.3484181,80.2583986 24.1793785,80.2660666 24.0564407,80.2660666 L22.0625424,80.2660666 L22.0625424,82.7160023 L20.91,82.7160023 L20.91,74.6645704 L24.0564407,74.6645704 C25.1014124,74.6645704 25.9235593,74.9137814 26.5228814,75.4122034 C27.1222034,75.9106254 27.4218644,76.5969141 27.4218644,77.4710695 C27.4218644,78.09218 27.2681921,78.6212741 26.9608475,79.0583518 C26.6535028,79.4954296 26.2155367,79.8136528 25.6469492,80.0130216 L27.5601695,82.7160023 L26.3038983,82.7160023 Z" id="Fill-7"></path>
            <path d="M34.4477627,81.3815733 C34.9203051,81.1131923 35.2929605,80.7432098 35.5657288,80.2716259 C35.8384972,79.8000421 35.9748814,79.272865 35.9748814,78.6900947 C35.9748814,78.1073244 35.8384972,77.5801473 35.5657288,77.1085634 C35.2929605,76.6369795 34.9203051,76.2669971 34.4477627,75.998616 C33.9752203,75.730235 33.4431299,75.5960444 32.8514915,75.5960444 C32.2598531,75.5960444 31.7239209,75.730235 31.2436949,75.998616 C30.7634689,76.2669971 30.3860113,76.6369795 30.1142034,77.1085634 C29.841435,77.5801473 29.7050508,78.1073244 29.7050508,78.6900947 C29.7050508,79.272865 29.841435,79.8000421 30.1142034,80.2716259 C30.3860113,80.7432098 30.7634689,81.1131923 31.2436949,81.3815733 C31.7239209,81.6499544 32.2598531,81.7841449 32.8514915,81.7841449 C33.4431299,81.7841449 33.9752203,81.6499544 34.4477627,81.3815733 M30.6501356,82.2729819 C29.9970282,81.9164185 29.4841469,81.4237475 29.1114915,80.794969 C28.7388362,80.1661905 28.5525085,79.4645658 28.5525085,78.6900947 C28.5525085,77.9156236 28.7388362,77.2139988 29.1114915,76.5852203 C29.4841469,75.9564418 29.9970282,75.4637709 30.6501356,75.1072075 C31.3032429,74.7506441 32.0370282,74.5723624 32.8514915,74.5723624 C33.6582712,74.5723624 34.3882147,74.7506441 35.041322,75.1072075 C35.6944294,75.4637709 36.2053898,75.9545248 36.5742034,76.5794693 C36.9430169,77.2044138 37.1274237,77.9079556 37.1274237,78.6900947 C37.1274237,79.4722338 36.9430169,80.1757756 36.5742034,80.80072 C36.2053898,81.4256645 35.6944294,81.9164185 35.041322,82.2729819 C34.3882147,82.6295453 33.6582712,82.807827 32.8514915,82.807827 C32.0370282,82.807827 31.3032429,82.6295453 30.6501356,82.2729819" id="Fill-9"></path>
            <path d="M44.1292147,81.3815733 C44.6017571,81.1131923 44.9744124,80.7432098 45.2471808,80.2716259 C45.5199492,79.8000421 45.6563333,79.272865 45.6563333,78.6900947 C45.6563333,78.1073244 45.5199492,77.5801473 45.2471808,77.1085634 C44.9744124,76.6369795 44.6017571,76.2669971 44.1292147,75.998616 C43.6566723,75.730235 43.1245819,75.5960444 42.5329435,75.5960444 C41.9413051,75.5960444 41.4053729,75.730235 40.9251469,75.998616 C40.4449209,76.2669971 40.0674633,76.6369795 39.7956554,77.1085634 C39.522887,77.5801473 39.3865028,78.1073244 39.3865028,78.6900947 C39.3865028,79.272865 39.522887,79.8000421 39.7956554,80.2716259 C40.0674633,80.7432098 40.4449209,81.1131923 40.9251469,81.3815733 C41.4053729,81.6499544 41.9413051,81.7841449 42.5329435,81.7841449 C43.1245819,81.7841449 43.6566723,81.6499544 44.1292147,81.3815733 M40.3315876,82.2729819 C39.6784802,81.9164185 39.1655989,81.4237475 38.7929435,80.794969 C38.4202881,80.1661905 38.2339605,79.4645658 38.2339605,78.6900947 C38.2339605,77.9156236 38.4202881,77.2139988 38.7929435,76.5852203 C39.1655989,75.9564418 39.6784802,75.4637709 40.3315876,75.1072075 C40.9846949,74.7506441 41.7184802,74.5723624 42.5329435,74.5723624 C43.3397232,74.5723624 44.0696667,74.7506441 44.722774,75.1072075 C45.3758814,75.4637709 45.8868418,75.9545248 46.2556554,76.5794693 C46.6244689,77.2044138 46.8088757,77.9079556 46.8088757,78.6900947 C46.8088757,79.4722338 46.6244689,80.1757756 46.2556554,80.80072 C45.8868418,81.4256645 45.3758814,81.9164185 44.722774,82.2729819 C44.0696667,82.6295453 43.3397232,82.807827 42.5329435,82.807827 C41.7184802,82.807827 40.9846949,82.6295453 40.3315876,82.2729819" id="Fill-11"></path>
            <polygon id="Fill-13" points="49.6274181 75.6651525 49.6274181 78.4716517 53.6728418 78.4716517 53.6728418 79.4608276 49.6274181 79.4608276 49.6274181 82.7159065 48.4748757 82.7159065 48.4748757 74.6644746 54.1693955 74.6644746 54.1693955 75.6651525"></polygon>
            <polygon id="Fill-15" points="55.5352542 82.7155231 56.6877966 82.7155231 56.6877966 74.6640912 55.5352542 74.6640912"></polygon>
            <polygon id="Fill-17" points="65.8725989 74.6645704 65.8725989 82.7160023 64.9284746 82.7160023 60.0877966 76.7119345 60.0877966 82.7160023 58.9342938 82.7160023 58.9342938 74.6645704 59.880339 74.6645704 64.7210169 80.6686382 64.7210169 74.6645704"></polygon>
            <path d="M73.8047797,78.6440865 L74.9102599,78.6440865 L74.9102599,81.7841449 C74.5107119,82.1138703 74.0468136,82.3669153 73.5156836,82.54328 C72.9855141,82.7196447 72.4322938,82.807827 71.8569831,82.807827 C71.0425198,82.807827 70.307774,82.6295453 69.6556271,82.2729819 C69.0025198,81.9164185 68.4896384,81.4256645 68.1169831,80.80072 C67.7433672,80.1757756 67.558,79.4722338 67.558,78.6900947 C67.558,77.9079556 67.7433672,77.2024968 68.1169831,76.5737183 C68.4896384,75.9449398 69.0044407,75.4541859 69.6613898,75.1014565 C70.318339,74.7487271 71.057887,74.5723624 71.8800339,74.5723624 C72.5254576,74.5723624 73.1103729,74.6777978 73.6367006,74.8886686 C74.1639887,75.0995395 74.6115593,75.4081777 74.9803729,75.8145833 L74.2648362,76.5277101 C73.6203729,75.9065996 72.8404859,75.5960444 71.9261356,75.5960444 C71.3104859,75.5960444 70.7601469,75.7283179 70.2712768,75.992865 C69.7833672,76.257412 69.4020678,76.6254775 69.1254576,77.0970614 C68.8488475,77.5686452 68.7095819,78.0996563 68.7095819,78.6900947 C68.7095819,79.272865 68.8488475,79.8000421 69.1254576,80.2716259 C69.4020678,80.7432098 69.7833672,81.1131923 70.2712768,81.3815733 C70.7601469,81.6499544 71.3066441,81.7841449 71.9136497,81.7841449 C72.6359096,81.7841449 73.2659661,81.6116143 73.8047797,81.2665529 L73.8047797,78.6440865 Z" id="Fill-18"></path>
            <path d="M81.8428983,75.6708077 C81.6392825,75.8510064 81.538435,76.0867984 81.538435,76.3781835 C81.538435,76.5852203 81.5931808,76.7845891 81.7045932,76.9762899 C81.8160056,77.1679906 82.0330678,77.4287037 82.3557797,77.758429 C82.8859492,77.4593758 83.2528418,77.2024968 83.4574181,76.9877919 C83.6610339,76.7730871 83.7618814,76.5392122 83.7618814,76.2861672 C83.7618814,76.0177861 83.6677571,75.8030812 83.4795085,75.6420526 C83.2912599,75.481024 83.028096,75.4005096 82.6900169,75.4005096 C82.328887,75.4005096 82.0465141,75.490609 81.8428983,75.6708077 Z M84.3842542,81.1285283 L82.0906949,78.8511233 C81.538435,79.1578445 81.1513729,79.4434787 80.9323898,79.7080257 C80.7134068,79.9725728 80.6039153,80.2697089 80.6039153,80.5994342 C80.6039153,80.9828358 80.7710339,81.293391 81.1052712,81.5310999 C81.4395085,81.7688089 81.8755537,81.8876634 82.4134068,81.8876634 C83.2125028,81.8876634 83.869452,81.6346184 84.3842542,81.1285283 Z M86.1130678,82.8423331 L85.0412034,81.7726429 C84.3266271,82.4627656 83.4276441,82.807827 82.3442542,82.807827 C81.8064011,82.807827 81.3223333,82.7196447 80.8920508,82.54328 C80.4627288,82.3669153 80.1256102,82.1196213 79.8835763,81.801398 C79.6415424,81.4831748 79.5205254,81.1208603 79.5205254,80.7144547 C79.5205254,80.2237008 79.6722768,79.78854 79.9767401,79.4089725 C80.2792825,79.029405 80.7815989,78.6402525 81.4798475,78.2415149 C81.1264011,77.8887855 80.8766836,77.5705622 80.7306949,77.2868451 C80.5847062,77.003128 80.5117119,76.7079088 80.5117119,76.4011876 C80.5117119,75.8567575 80.709565,75.4196797 81.1052712,75.0899544 C81.5019379,74.7602291 82.029226,74.5953665 82.6900169,74.5953665 C83.3047062,74.5953665 83.7926158,74.744893 84.1537458,75.0439462 C84.5148757,75.3429994 84.6964011,75.753239 84.6964011,76.2746651 C84.6964011,76.6810707 84.5628983,77.0453022 84.298774,77.3673594 C84.0327288,77.6894167 83.5928418,78.0268101 82.979113,78.3795395 L84.9720508,80.3578913 C85.2025593,79.9208136 85.3677571,79.4338936 85.4676441,78.8971315 L86.3551017,79.1846826 C86.2177571,79.8901414 85.9834068,80.5035839 85.6520508,81.0250099 L86.7354407,82.1062022 L86.1130678,82.8423331 Z" id="Fill-19"></path>
            <polygon id="Fill-20" points="97.0741299 81.7152285 97.0741299 82.7159065 91.2182542 82.7159065 91.2182542 74.6644746 96.912774 74.6644746 96.912774 75.6651525 92.3717571 75.6651525 92.3717571 78.1380923 96.4162203 78.1380923 96.4162203 79.1157662 92.3717571 79.1157662 92.3717571 81.7152285"></polygon>
            <polygon id="Fill-21" points="104.163034 82.7159065 101.742695 79.3918153 99.3569322 82.7159065 98.0315085 82.7159065 101.062695 78.5866721 98.2168757 74.6644746 99.5298136 74.6644746 101.788797 77.7585248 104.024729 74.6644746 105.281 74.6644746 102.43422 78.552166 105.488458 82.7159065"></polygon>
            <polygon id="Fill-22" points="108.797407 75.6651525 106.031305 75.6651525 106.031305 74.6644746 112.704525 74.6644746 112.704525 75.6651525 109.938424 75.6651525 109.938424 82.7159065 108.797407 82.7159065"></polygon>
            <polygon id="Fill-23" points="119.735706 81.7152285 119.735706 82.7159065 113.880791 82.7159065 113.880791 74.6644746 119.57435 74.6644746 119.57435 75.6651525 115.033333 75.6651525 115.033333 78.1380923 119.078757 78.1380923 119.078757 79.1157662 115.033333 79.1157662 115.033333 81.7152285"></polygon>
            <path d="M126.103407,78.8168089 C126.486627,78.5024196 126.679678,78.0538399 126.679678,77.4710695 C126.679678,76.8882992 126.486627,76.4416365 126.103407,76.1310812 C125.719226,75.820526 125.162164,75.6652484 124.43222,75.6652484 L122.472898,75.6652484 L122.472898,79.2883928 L124.43222,79.2883928 C125.162164,79.2883928 125.719226,79.1311981 126.103407,78.8168089 Z M126.714254,82.7160023 L124.972955,80.2430625 C124.758774,80.2583986 124.589734,80.2660666 124.466797,80.2660666 L122.472898,80.2660666 L122.472898,82.7160023 L121.320356,82.7160023 L121.320356,74.6645704 L124.466797,74.6645704 C125.511768,74.6645704 126.332955,74.9137814 126.932277,75.4122034 C127.531599,75.9106254 127.83222,76.5969141 127.83222,77.4710695 C127.83222,78.09218 127.678548,78.6212741 127.370243,79.0583518 C127.062898,79.4954296 126.625893,79.8136528 126.056345,80.0130216 L127.969565,82.7160023 L126.714254,82.7160023 Z" id="Fill-24"></path>
            <polygon id="Fill-25" points="129.588983 82.7155231 130.741525 82.7155231 130.741525 74.6640912 129.588983 74.6640912"></polygon>
            <path d="M138.321989,81.3815733 C138.794531,81.1131923 139.167186,80.7432098 139.439955,80.2716259 C139.712723,79.8000421 139.849107,79.272865 139.849107,78.6900947 C139.849107,78.1073244 139.712723,77.5801473 139.439955,77.1085634 C139.167186,76.6369795 138.794531,76.2669971 138.321989,75.998616 C137.849446,75.730235 137.317356,75.5960444 136.725718,75.5960444 C136.134079,75.5960444 135.598147,75.730235 135.117921,75.998616 C134.637695,76.2669971 134.260237,76.6369795 133.988429,77.1085634 C133.715661,77.5801473 133.579277,78.1073244 133.579277,78.6900947 C133.579277,79.272865 133.715661,79.8000421 133.988429,80.2716259 C134.260237,80.7432098 134.637695,81.1131923 135.117921,81.3815733 C135.598147,81.6499544 136.134079,81.7841449 136.725718,81.7841449 C137.317356,81.7841449 137.849446,81.6499544 138.321989,81.3815733 M134.524362,82.2729819 C133.871254,81.9164185 133.358373,81.4237475 132.985718,80.794969 C132.613062,80.1661905 132.426734,79.4645658 132.426734,78.6900947 C132.426734,77.9156236 132.613062,77.2139988 132.985718,76.5852203 C133.358373,75.9564418 133.871254,75.4637709 134.524362,75.1072075 C135.177469,74.7506441 135.911254,74.5723624 136.725718,74.5723624 C137.532497,74.5723624 138.262441,74.7506441 138.915548,75.1072075 C139.568655,75.4637709 140.078655,75.9545248 140.448429,76.5794693 C140.816282,77.2044138 141.00165,77.9079556 141.00165,78.6900947 C141.00165,79.4722338 140.816282,80.1757756 140.448429,80.80072 C140.078655,81.4256645 139.568655,81.9164185 138.915548,82.2729819 C138.262441,82.6295453 137.532497,82.807827 136.725718,82.807827 C135.911254,82.807827 135.177469,82.6295453 134.524362,82.2729819" id="Fill-26"></path>
            <path d="M147.450989,78.8168089 C147.834209,78.5024196 148.02726,78.0538399 148.02726,77.4710695 C148.02726,76.8882992 147.834209,76.4416365 147.450989,76.1310812 C147.066808,75.820526 146.509746,75.6652484 145.779802,75.6652484 L143.82048,75.6652484 L143.82048,79.2883928 L145.779802,79.2883928 C146.509746,79.2883928 147.066808,79.1311981 147.450989,78.8168089 Z M148.061836,82.7160023 L146.321497,80.2430625 C146.106356,80.2583986 145.937316,80.2660666 145.814379,80.2660666 L143.82048,80.2660666 L143.82048,82.7160023 L142.667938,82.7160023 L142.667938,74.6645704 L145.814379,74.6645704 C146.85935,74.6645704 147.681497,74.9137814 148.279859,75.4122034 C148.879181,75.9106254 149.179802,76.5969141 149.179802,77.4710695 C149.179802,78.09218 149.02613,78.6212741 148.717825,79.0583518 C148.411441,79.4954296 147.973475,79.8136528 147.404887,80.0130216 L149.317147,82.7160023 L148.061836,82.7160023 Z" id="Fill-27"></path>
            <path d="M151.592938,82.5258352 C151.028192,82.3379684 150.584463,82.0945085 150.261751,81.7954553 L150.688192,80.8982957 C150.995537,81.1743448 151.389322,81.3986347 151.869548,81.5711654 C152.349774,81.7436961 152.843446,81.8299614 153.350565,81.8299614 C154.01904,81.8299614 154.518475,81.716858 154.84887,81.4906511 C155.179266,81.2654027 155.344463,80.963474 155.344463,80.5877405 C155.344463,80.3116914 155.254181,80.0874015 155.073616,79.9148708 C154.893051,79.7423402 154.670226,79.6100666 154.405141,79.5180503 C154.140056,79.4260339 153.76548,79.3225155 153.281412,79.207495 C152.674407,79.0618025 152.184576,78.9161099 151.812881,78.7704173 C151.439266,78.6247247 151.120395,78.4004348 150.855311,78.0975476 C150.590226,77.7946604 150.457684,77.3863378 150.457684,76.8725798 C150.457684,76.4431701 150.571017,76.0559345 150.797684,75.7108732 C151.02435,75.3658118 151.368192,75.0897627 151.829209,74.8827259 C152.290226,74.6756891 152.862655,74.5721707 153.546497,74.5721707 C154.022881,74.5721707 154.492542,74.6344734 154.952599,74.7562034 C155.414576,74.8788919 155.809322,75.0552566 156.139718,75.2852975 L155.759379,76.2054611 C155.421299,75.9907563 155.060169,75.8278106 154.675989,75.7166242 C154.291808,75.6054378 153.915311,75.5498445 153.546497,75.5498445 C152.89339,75.5498445 152.403559,75.668699 152.077006,75.9064079 C151.750452,76.1441169 151.587175,76.4517966 151.587175,76.8265716 C151.587175,77.1026207 151.679379,77.3269106 151.863785,77.4994413 C152.048192,77.6719719 152.27678,77.8061625 152.549548,77.9020129 C152.822316,77.9978632 153.193051,78.0994646 153.661751,78.2068171 C154.268757,78.3525096 154.756667,78.4982022 155.12548,78.6438948 C155.494294,78.7905459 155.811243,79.0119603 156.076328,79.3110134 C156.341412,79.6100666 156.473955,80.0126382 156.473955,80.5187282 C156.473955,80.9404699 156.358701,81.3267469 156.128192,81.6746838 C155.897684,82.0245377 155.548079,82.2996283 155.079379,82.5028311 C154.610678,82.7060339 154.034407,82.8076353 153.350565,82.8076353 C152.743559,82.8076353 152.157684,82.7137019 151.592938,82.5258352" id="Fill-28"></path>
            <path d="M85.2354068,18.6281379 L90.1365932,18.6281379 L90.1365932,34.2229947 L85.2354068,31.3992425 L85.2354068,18.6281379 Z M20.7351017,35.6544243 L20.7351017,2.44514319 L20.7351017,-3.55271368e-15 L169.627249,-3.55271368e-15 L169.627249,95.7104383 L20.7351017,95.7104383 L20.7351017,90.820152 L164.727983,90.820152 L164.727983,4.89124489 L25.6353277,4.89124489 L25.6353277,30.417009 L54.5825819,13.736893 L80.3342203,28.5754904 L80.3342203,13.736893 L80.9959718,13.736893 L85.2354068,13.736893 L90.1365932,13.736893 L95.0368192,13.736893 L95.0368192,18.6281379 L95.0368192,37.0457884 L146.021452,66.4229714 L136.22004,66.4229714 L54.5825819,19.3853559 L20.7352938,38.8880327 L20.7352938,35.6544243 Z" id="Combined-Shape"></path>
            <path d="M16.7919661,60.2125377 C15.3829831,61.8573302 13.6368814,62.678768 11.5527006,62.678768 C10.2618531,62.678768 9.11027119,62.3960094 8.09891525,61.8314506 C7.08659887,61.2678504 6.29710734,60.4799603 5.73140113,59.4696973 C5.16569492,58.4594342 4.88332203,57.3111467 4.88332203,56.0229176 C4.88332203,54.735647 5.16569492,53.5864009 5.73140113,52.5761379 C6.29710734,51.5658749 7.08659887,50.7789433 8.09891525,50.2134261 C9.11027119,49.6488673 10.2618531,49.3670672 11.5527006,49.3670672 C13.6368814,49.3670672 15.3829831,50.1798784 16.7919661,51.8035839 L16.7919661,46.5088089 C16.5998757,46.4110415 16.4125876,46.3046476 16.2118531,46.2174237 C14.7529266,45.5838527 13.1201582,45.266588 11.3145085,45.266588 C9.16981921,45.266588 7.24027119,45.7276283 5.5239435,46.6487504 C3.80569492,47.5698726 2.45625989,48.8475582 1.47371751,50.4818071 C0.491175141,52.1160561 0.000384180791,53.9630929 0.000384180791,56.0229176 C0.000384180791,58.0837008 0.491175141,59.9307376 1.47371751,61.5649866 C2.45625989,63.1992355 3.80569492,64.4769211 5.5239435,65.3980432 C7.24027119,66.3191654 9.16117514,66.7792472 11.2847345,66.7792472 C13.0903842,66.7792472 14.7289153,66.4619825 16.1974463,65.8284115 C16.4039435,65.7392706 16.5950734,65.6309597 16.7919661,65.5303168 L16.7919661,60.2125377 Z" id="Fill-30"></path>
            <path d="M93.3110791,55.2506511 C92.2978023,54.8739591 90.9983107,54.4972671 89.4097232,54.1215336 C87.8826045,53.7850988 86.7454294,53.4429129 86.0010791,53.0959345 C85.2567288,52.7499147 84.8850339,52.2198621 84.8850339,51.5067352 C84.8850339,50.7936084 85.2067853,50.2185061 85.852209,49.7833454 C86.4966723,49.3472262 87.4936215,49.1296458 88.8449774,49.1296458 C90.6996102,49.1296458 93.1113051,49.7948475 95.0370113,50.9824337 L95.0370113,46.5455196 C94.3454859,46.2225038 93.5992147,45.9474132 92.7741864,45.7422934 C91.5044689,45.4259871 90.2049774,45.2668755 88.8747514,45.2668755 C86.9682542,45.2668755 85.3556554,45.5544267 84.0369548,46.1285704 C82.7163333,46.7036727 81.7280282,47.4800608 81.0739605,48.4615687 C80.4179718,49.4411596 80.0904576,50.5367294 80.0904576,51.7444442 C80.0904576,53.1313992 80.452548,54.2403881 81.1776893,55.0723694 C81.9018701,55.9043507 82.7701186,56.5082081 83.7833955,56.8849001 C84.7957119,57.2615921 86.0942429,57.6373255 87.683791,58.0140175 C88.7153164,58.2517265 89.5336215,58.4693068 90.1396667,58.6677171 C90.7447514,58.8651689 91.2422655,59.1277989 91.6283672,59.4546487 C92.0144689,59.7814985 92.2094407,60.1926967 92.2094407,60.6882431 C92.2094407,61.3611128 91.8819266,61.9017089 91.2268983,62.307156 C90.5709096,62.7135617 89.5595537,62.9167645 88.1899492,62.9167645 C86.9586497,62.9167645 85.7283107,62.7193127 84.4979718,62.3224921 C83.2666723,61.9256715 81.4389322,61.0122174 80.5898927,60.2482899 L80.5898927,64.9660456 C81.372661,65.4127084 82.2975763,65.7970684 83.3809661,66.1104991 C84.9186497,66.5562034 86.5120395,66.7795348 88.1601751,66.7795348 C90.0657119,66.7795348 91.683113,66.4919836 93.0123785,65.9178399 C94.3426045,65.3436961 95.3395537,64.565391 96.0051469,63.5848416 C96.6697797,62.6042922 97.0030565,61.5202244 97.0030565,60.3316797 C97.0030565,58.9447247 96.6409661,57.8462794 95.9158249,57.0334681 C95.1906836,56.2216154 94.3233955,55.6273431 93.3110791,55.2506511" id="Fill-31"></path>
        </g>
        <g id="Group-31" transform="translate(0.000000, 184.000000)" fill-rule="nonzero" stroke="#BFBFBF" stroke-width="2">
            <polyline id="Path-22" points="0.0118408203 42.0263672 43.006134 42.0263672 43.006134 0 1.00671387 0 1.00671387 35.005127 29.019165 35.005127 36.0138245 7.00436401 8.00198364 7.00436401 1.63936375 34.2635323"></polyline>
            <path d="M14.9990234,7 L8,34.9914551" id="Path-23"></path>
            <path d="M21.9990234,7 L15,34.9914551" id="Path-23-Copy"></path>
            <path d="M28.9990234,7 L22,34.9914551" id="Path-23-Copy-2"></path>
        </g>
        <g id="Group-31-Copy-5" transform="translate(0.000000, 233.000000)" fill-rule="nonzero" stroke="#00AF86" stroke-width="2">
            <polyline id="Path-22" points="0.0118408203 42.0263672 43.006134 42.0263672 43.006134 0 1.00671387 0 1.00671387 35.005127 29.019165 35.005127 36.0138245 7.00436401 8.00198364 7.00436401 1.63936375 34.2635323"></polyline>
            <path d="M14.9990234,7 L8,34.9914551" id="Path-23"></path>
            <path d="M21.9990234,7 L15,34.9914551" id="Path-23-Copy"></path>
            <path d="M28.9990234,7 L22,34.9914551" id="Path-23-Copy-2"></path>
        </g>
        <g id="Group-32" transform="translate(45.000000, 184.000000)" fill-rule="nonzero" stroke="#BFBFBF" stroke-width="2">
            <g id="Group-31-Copy">
                <polyline id="Path-22" points="3.00744629 42.0428467 46.006134 42.0428467 46.006134 0 4.00671387 0 4.00671387 6.94433594"></polyline>
                <rect id="Rectangle-29" x="1" y="7" width="39" height="8" rx="4"></rect>
            </g>
            <circle id="Oval-2" cx="36" cy="11" r="4"></circle>
            <polyline id="Path-24" points="4.00195312 15.0148926 4.00195312 28.0074463 40.0019226 35.0237427 40.0019226 11.0023956"></polyline>
        </g>
        <g id="Group-32-Copy" transform="translate(45.000000, 233.000000)" fill-rule="nonzero" stroke="#00AF86" stroke-width="2">
            <g id="Group-31-Copy">
                <polyline id="Path-22" points="3.00744629 42.0428467 46.006134 42.0428467 46.006134 0 4.00671387 0 4.00671387 6.94433594"></polyline>
                <rect id="Rectangle-29" x="1" y="7" width="39" height="8" rx="4"></rect>
            </g>
            <circle id="Oval-2" cx="36" cy="11" r="4"></circle>
            <polyline id="Path-24" points="4.00195312 15.0148926 4.00195312 28.0074463 40.0019226 35.0237427 40.0019226 11.0023956"></polyline>
        </g>
        <g id="Group-33" transform="translate(93.000000, 184.000000)" fill-rule="nonzero" stroke="#BFBFBF" stroke-width="2">
            <g id="Group-31-Copy-2">
                <polyline id="Path-22" points="0.0228271484 42.020874 43.006134 42.020874 43.006134 0 1.00671387 0 1.00671387 35.005127 29.019165 35.005127 36.0138245 7.00436401 8.00198364 7.00436401 1.63936375 34.2635323"></polyline>
            </g>
            <path d="M6,14 L34.0405273,14" id="Path-25"></path>
            <path d="M5,21 L33.0405273,21" id="Path-25-Copy"></path>
            <path d="M3,28 L31.0405273,28" id="Path-25-Copy-2"></path>
            <path d="M14.9990234,7 L13.2461365,14.0103859 M11.4856007,21.0513623 L9.72965444,28.0739836" id="Path-23-Copy"></path>
            <path d="M28.9990234,7 L27.2461365,14.0103859 M25.4856007,21.0513623 L23.7296544,28.0739836" id="Path-23-Copy-4"></path>
            <path d="M20.2495546,13.996716 L18.4934861,21.0198259 M16.7401752,28.0319075 L15,34.9914551" id="Path-23-Copy-3"></path>
        </g>
        <g id="Group-33-Copy" transform="translate(93.000000, 233.000000)" fill-rule="nonzero" stroke="#00AF86" stroke-width="2">
            <g id="Group-31-Copy-2">
                <polyline id="Path-22" points="0.0228271484 42.020874 43.006134 42.020874 43.006134 0 1.00671387 0 1.00671387 35.005127 29.019165 35.005127 36.0138245 7.00436401 8.00198364 7.00436401 1.63936375 34.2635323"></polyline>
            </g>
            <path d="M6,14 L34.0405273,14" id="Path-25"></path>
            <path d="M5,21 L33.0405273,21" id="Path-25-Copy"></path>
            <path d="M3,28 L31.0405273,28" id="Path-25-Copy-2"></path>
            <path d="M14.9990234,7 L13.2461365,14.0103859 M11.4856007,21.0513623 L9.72965444,28.0739836" id="Path-23-Copy"></path>
            <path d="M28.9990234,7 L27.2461365,14.0103859 M25.4856007,21.0513623 L23.7296544,28.0739836" id="Path-23-Copy-4"></path>
            <path d="M20.2495546,13.996716 L18.4934861,21.0198259 M16.7401752,28.0319075 L15,34.9914551" id="Path-23-Copy-3"></path>
        </g>
        <g id="Group-36" transform="translate(183.000000, 184.000000)" fill-rule="nonzero" stroke="#BFBFBF" stroke-width="2">
            <g id="Group-31-Copy-4">
                <polyline id="Path-22" points="0.00756835938 42.0421143 43.006134 42.0421143 43.006134 0 1.00671387 0 1.00671387 35.005127 36.0138245 35.005127 36.0138245 7.00436401 1.00671387 7.00436401"></polyline>
            </g>
            <path d="M1.00326538,13.9999695 L36.0052795,13.9999695" id="Path-28"></path>
            <path d="M1.00326538,20.9999695 L36.0052795,20.9999695" id="Path-28-Copy"></path>
            <path d="M1.00326538,27.9999695 L36.0052795,27.9999695" id="Path-28-Copy-2"></path>
        </g>
        <g id="Group-36-Copy-2" transform="translate(183.000000, 233.000000)" fill-rule="nonzero" stroke="#00AF86" stroke-width="2">
            <g id="Group-31-Copy-4">
                <polyline id="Path-22" points="0.00756835938 42.0421143 43.006134 42.0421143 43.006134 0 1.00671387 0 1.00671387 35.005127 36.0138245 35.005127 36.0138245 7.00436401 1.00671387 7.00436401"></polyline>
            </g>
            <path d="M1.00326538,13.9999695 L36.0052795,13.9999695" id="Path-28"></path>
            <path d="M1.00326538,20.9999695 L36.0052795,20.9999695" id="Path-28-Copy"></path>
            <path d="M1.00326538,27.9999695 L36.0052795,27.9999695" id="Path-28-Copy-2"></path>
        </g>
        <g id="Group-36-Copy" transform="translate(228.000000, 184.000000)" fill-rule="nonzero" stroke="#BFBFBF" stroke-width="2">
            <g id="Group-31-Copy-4">
                <polyline id="Path-22" points="0.00726318359 42.026123 43.006134 42.026123 43.006134 0 1.00671387 0 1.00671387 15.0281372 36.0138245 15.0281372 36.0138245 7.00436401 1.00671387 7.00436401"></polyline>
                <polyline id="Path-29" points="14.0087891 15.0307617 14.0087891 29.9924316 27.0239868 34.022644 27.0239868 25.005249 23.02771 24.0032349 23.02771 15.0307617"></polyline>
            </g>
        </g>
        <g id="Group-36-Copy-3" transform="translate(228.000000, 233.000000)" fill-rule="nonzero" stroke="#00AF86" stroke-width="2">
            <g id="Group-31-Copy-4">
                <polyline id="Path-22" points="0.00726318359 42.026123 43.006134 42.026123 43.006134 0 1.00671387 0 1.00671387 15.0281372 36.0138245 15.0281372 36.0138245 7.00436401 1.00671387 7.00436401"></polyline>
                <polyline id="Path-29" points="14.0087891 15.0307617 14.0087891 29.9924316 27.0239868 34.022644 27.0239868 25.005249 23.02771 24.0032349 23.02771 15.0307617"></polyline>
            </g>
        </g>
        <g id="Group-31" transform="translate(0.000000, 282.000000)" fill-rule="nonzero" stroke="#BFBFBF" stroke-width="2">
            <polyline id="Path-22" points="0.0118408203 42.0263672 43.006134 42.0263672 43.006134 0 1.00671387 0 1.00671387 35.005127"></polyline>
            <polygon id="Path-33" points="14.0117798 29.0229492 17.0273438 7 21.0258789 7 24.0264893 29.0229492 37.0001221 29.0031433 37.0001221 34.0065308 1.00439453 34.0065308 1.00439453 29.0031433"></polygon>
            <path d="M35.026123,28.4710693 C35.026123,20.2023331 27.4988611,12.9470438 21.5063542,11.3335954 M16.450413,11.3460875 C10.4931133,12.984168 2.98291016,20.2234842 2.98291016,28.4710693" id="Oval"></path>
        </g>
        <g id="Group-31-Copy-7" transform="translate(0.000000, 331.000000)" fill-rule="nonzero" stroke="#00AF86" stroke-width="2">
            <polyline id="Path-22" points="0.0118408203 42.0263672 43.006134 42.0263672 43.006134 0 1.00671387 0 1.00671387 35.005127"></polyline>
            <polygon id="Path-33" points="14.0117798 29.0229492 17.0273438 7 21.0258789 7 24.0264893 29.0229492 37.0001221 29.0031433 37.0001221 34.0065308 1.00439453 34.0065308 1.00439453 29.0031433"></polygon>
            <path d="M35.026123,28.4710693 C35.026123,20.2023331 27.4988611,12.9470438 21.5063542,11.3335954 M16.450413,11.3460875 C10.4931133,12.984168 2.98291016,20.2234842 2.98291016,28.4710693" id="Oval"></path>
        </g>
        <g id="Group-32" transform="translate(45.000000, 282.000000)" fill-rule="nonzero" stroke="#BFBFBF" stroke-width="2">
            <g id="Group-31-Copy">
                <path d="M0.00744628906,42.0428467 L43.006134,42.0428467 L43.006134,0 L1.00671387,0 L1.00671387,12.0487061 L15.0153809,6.95898438 L29.0218506,12.0487061 C29.0218506,23.3916423 24.3530273,31.0747884 15.0153809,35.0981445 C5.67626953,31.0609538 1.00671387,23.5208333 1.00671387,12.4777832" id="Path-22"></path>
                <polyline id="Path-2" points="10.0463867 21.046875 15.001709 26.0841064 22.0159912 15.0224609"></polyline>
            </g>
        </g>
        <g id="Group-32-Copy-2" transform="translate(45.000000, 331.000000)" fill-rule="nonzero" stroke="#00AF86" stroke-width="2">
            <g id="Group-31-Copy">
                <path d="M0.00744628906,42.0428467 L43.006134,42.0428467 L43.006134,0 L1.00671387,0 L1.00671387,12.0487061 L15.0153809,6.95898438 L29.0218506,12.0487061 C29.0218506,23.3916423 24.3530273,31.0747884 15.0153809,35.0981445 C5.67626953,31.0609538 1.00671387,23.5208333 1.00671387,12.4777832" id="Path-22"></path>
                <polyline id="Path-2" points="10.0463867 21.046875 15.001709 26.0841064 22.0159912 15.0224609"></polyline>
            </g>
        </g>
        <g id="Group-3" transform="translate(90.000000, 282.000000)" fill-rule="nonzero" stroke="#BFBFBF" stroke-width="2">
            <g id="Group-33">
                <g id="Group-31-Copy-2">
                    <polyline id="Path-22" points="0.0228271484 42.020874 43.006134 42.020874 43.006134 0 1.00671387 0 1.00671387 31.0107422 13.0921631 12.4537354"></polyline>
                </g>
            </g>
            <circle id="Oval-3" cx="22" cy="17" r="10"></circle>
            <polyline id="Path-2" points="18.9724121 17.0266113 22.0120239 20.0205688 26.0283203 12.9963989"></polyline>
            <polyline id="Path-4" transform="translate(14.791875, 28.346798) rotate(-330.000000) translate(-14.791875, -28.346798) " points="11.7919432 23.7650316 11.7950104 32.9285653 14.7934082 30.9139016 17.7918061 32.9285653 17.7918061 23.9355844"></polyline>
            <polyline id="Path-4-Copy" transform="translate(29.213420, 28.333859) rotate(-30.000000) translate(-29.213420, -28.333859) " points="26.1996585 23.9531608 26.1996585 32.9225822 29.1980564 30.9079185 32.1964542 32.9225822 32.2271818 23.7451358"></polyline>
        </g>
        <g id="Group-3-Copy" transform="translate(90.000000, 331.000000)" fill-rule="nonzero" stroke="#00AF86" stroke-width="2">
            <g id="Group-33">
                <g id="Group-31-Copy-2">
                    <polyline id="Path-22" points="0.0228271484 42.020874 43.006134 42.020874 43.006134 0 1.00671387 0 1.00671387 31.0107422 13.0921631 12.4537354"></polyline>
                </g>
            </g>
            <circle id="Oval-3" cx="22" cy="17" r="10"></circle>
            <polyline id="Path-2" points="18.9724121 17.0266113 22.0120239 20.0205688 26.0283203 12.9963989"></polyline>
            <polyline id="Path-4" transform="translate(14.791875, 28.346798) rotate(-330.000000) translate(-14.791875, -28.346798) " points="11.7919432 23.7650316 11.7950104 32.9285653 14.7934082 30.9139016 17.7918061 32.9285653 17.7918061 23.9355844"></polyline>
            <polyline id="Path-4-Copy" transform="translate(29.213420, 28.333859) rotate(-30.000000) translate(-29.213420, -28.333859) " points="26.1996585 23.9531608 26.1996585 32.9225822 29.1980564 30.9079185 32.1964542 32.9225822 32.2271818 23.7451358"></polyline>
        </g>
        <g id="Group-33" transform="translate(135.000000, 282.000000)" fill-rule="nonzero" stroke="#BFBFBF" stroke-width="2">
            <g id="Group-31-Copy-2">
                <polyline id="Path-22" points="0.0228271484 42.020874 43.006134 42.020874 43.006134 0 1.00671387 0 1.00671387 35.005127 19.012207 35.005127 23.0068359 32.9975586 23.0068359 35.005127 29.019165 35.005127 36.0138245 7.00436401 8.00198364 7.00436401 1.63936375 34.2635323"></polyline>
                <path d="M13.0183105,7.01477051 L8.00793457,29.0424805" id="Path-3"></path>
                <polyline id="Path-35" points="3.01507568 29.0005493 29.032959 29.0005493 29.032959 34.9753418"></polyline>
            </g>
        </g>
        <g id="Group-33-Copy-2" transform="translate(135.000000, 331.000000)" fill-rule="nonzero" stroke="#00AF86" stroke-width="2">
            <g id="Group-31-Copy-2">
                <polyline id="Path-22" points="0.0228271484 42.020874 43.006134 42.020874 43.006134 0 1.00671387 0 1.00671387 35.005127 19.012207 35.005127 23.0068359 32.9975586 23.0068359 35.005127 29.019165 35.005127 36.0138245 7.00436401 8.00198364 7.00436401 1.63936375 34.2635323"></polyline>
                <path d="M13.0183105,7.01477051 L8.00793457,29.0424805" id="Path-3"></path>
                <polyline id="Path-35" points="3.01507568 29.0005493 29.032959 29.0005493 29.032959 34.9753418"></polyline>
            </g>
        </g>
        <g id="Group-3" transform="translate(180.000000, 282.000000)" fill-rule="nonzero" stroke="#BFBFBF" stroke-width="2">
            <g id="Group-33">
                <g id="Group-31-Copy-2">
                    <polyline id="Path-22" points="0.0228271484 42.020874 43.006134 42.020874 43.006134 0 1.00671387 0 1.00671387 30.0112305 10.8601074 22.7363281"></polyline>
                </g>
            </g>
            <circle id="Oval-3" cx="22" cy="18" r="12"></circle>
            <circle id="Oval-3-Copy" cx="22" cy="18" r="8"></circle>
            <polyline id="Path-34" points="13.3895264 26.4207764 3.01843262 34.0456543 0.772583008 31.2509766"></polyline>
        </g>
        <g id="Group-3-Copy-2" transform="translate(180.000000, 331.000000)" fill-rule="nonzero" stroke="#00AF86" stroke-width="2">
            <g id="Group-33">
                <g id="Group-31-Copy-2">
                    <polyline id="Path-22" points="0.0228271484 42.020874 43.006134 42.020874 43.006134 0 1.00671387 0 1.00671387 30.0112305 10.8601074 22.7363281"></polyline>
                </g>
            </g>
            <circle id="Oval-3" cx="22" cy="18" r="12"></circle>
            <circle id="Oval-3-Copy" cx="22" cy="18" r="8"></circle>
            <polyline id="Path-34" points="13.3895264 26.4207764 3.01843262 34.0456543 0.772583008 31.2509766"></polyline>
        </g>
        <g id="Group-18" transform="translate(1.000000, 137.000000)" fill-rule="nonzero">
            <circle id="Oval-Copy" stroke="#A92E5C" cx="20" cy="20" r="20"></circle>
            <circle id="Oval" fill="#A92E5C" cx="20" cy="20" r="9"></circle>
        </g>
        <g id="Group-18" transform="translate(43.000000, 137.000000)" fill-rule="nonzero">
            <circle id="Oval-Copy" stroke="#BF406F" cx="20" cy="20" r="20"></circle>
            <circle id="Oval" fill="#BF406F" cx="20" cy="20" r="9"></circle>
        </g>
        <g id="Group-19" transform="translate(85.000000, 142.000000)" fill-rule="nonzero">
            <g id="Group-18">
                <circle id="Oval-Copy" stroke="#A92E5C" cx="17.5" cy="17.5" r="17.5"></circle>
                <circle id="Oval" fill="#A92E5C" cx="17.5" cy="17.5" r="8.5"></circle>
            </g>
        </g>
        <g id="Group-19-Copy" transform="translate(122.000000, 142.000000)" fill-rule="nonzero">
            <g id="Group-18">
                <circle id="Oval-Copy" stroke="#BF406F" cx="17.5" cy="17.5" r="17.5"></circle>
                <circle id="Oval" fill="#BF406F" cx="17.5" cy="17.5" r="8.5"></circle>
            </g>
        </g>
        <path d="M6.52680653,426.482353 C7.30381119,426.827453 7.90986573,427.345095 8.34498834,428.035294 C8.78011096,428.725494 8.997669,429.541172 8.997669,430.482353 C8.997669,431.831379 8.57809277,432.921564 7.73892774,433.752941 C6.8997627,434.584318 5.82751235,435 4.52214452,435 C3.21677669,435 2.13675641,434.576475 1.28205128,433.729412 C0.427346154,432.882349 0,431.800007 0,430.482353 C0,429.854899 0.0776993007,429.227454 0.233100233,428.6 C0.388501166,427.972546 0.730378089,427.031379 1.25874126,425.776471 L3.96270396,419 L8.57808858,419 L6.52680653,426.482353 Z M17.5291375,426.482353 C18.3061422,426.827453 18.9121967,427.345095 19.3473193,428.035294 C19.782442,428.725494 20,429.541172 20,430.482353 C20,431.831379 19.5804238,432.921564 18.7412587,433.752941 C17.9020937,434.584318 16.8298434,435 15.5244755,435 C14.2191077,435 13.1390874,434.576475 12.2843823,433.729412 C11.4296772,432.882349 11.002331,431.800007 11.002331,430.482353 C11.002331,429.854899 11.0800303,429.227454 11.2354312,428.6 C11.3908322,427.972546 11.7327091,427.031379 12.2610723,425.776471 L14.965035,419 L19.5804196,419 L17.5291375,426.482353 Z" id="“" fill="#00AF86"></path>
        <g id="bbb-a" opacity="0.55" transform="translate(1.000000, 443.000000)">
            <path d="M37.2017299,36.5473934 L37.2017299,0.121322275 L100.856991,0.121322275 C103.64263,0.121322275 105.900782,2.37947393 105.900782,5.16511374 L105.900782,31.5036019 C105.900782,34.2892417 103.64263,36.5473934 100.856991,36.5473934 L37.2017299,36.5473934 Z M45.3456445,13.0764313 L44.0083365,13.0764313 L41.372654,19.6084929 L42.8478626,19.6084929 L43.3886635,18.1528768 L45.9062891,18.1528768 L46.44709,19.6084929 L47.9614834,19.6084929 L45.3456445,13.0764313 Z M65.3093128,17.1265355 C65.7483839,16.9647725 66.2376919,16.6703839 66.4572275,16.3564028 C66.6770142,16.0421706 66.7870332,15.6392701 66.7870332,15.1479526 C66.7870332,14.7995592 66.7244882,14.4963791 66.6001517,14.2381611 C66.4753128,13.9799431 66.3050095,13.7639242 66.0884882,13.5896019 C65.872218,13.4152796 65.6197773,13.2864218 65.3314171,13.2022749 C65.0428057,13.1183791 64.7378673,13.0764313 64.4168531,13.0764313 L61.2107299,13.0764313 L61.2107299,19.6084929 L62.5877251,19.6084929 L62.5877251,17.2569005 L63.8145118,17.3129147 L65.2532986,19.6084929 L66.8365166,19.6084929 L65.3093128,17.1265355 Z M78.9652275,14.8259336 C78.7914076,14.4122322 78.5520284,14.074891 78.2468389,13.8134076 C77.9421517,13.5524265 77.5819526,13.3640379 77.1654882,13.2489953 C76.7492749,13.1339526 76.2946303,13.0764313 75.8030616,13.0764313 L73.6491517,13.0764313 L73.6491517,19.6084929 L75.7053507,19.6084929 C76.1444218,19.6084929 76.5752038,19.5459479 76.9981991,19.4218626 C77.4211943,19.2972749 77.7977204,19.1028578 78.1290332,18.8386114 C78.4598436,18.5741137 78.7258483,18.2350142 78.9252891,17.8213128 C79.1252322,17.4078626 79.2252038,16.9145355 79.2252038,16.3423365 C79.2252038,15.7452701 79.138545,15.2398863 78.9652275,14.8259336 Z M100.508597,14.8259336 C100.335028,14.4122322 100.0959,14.074891 99.7904597,13.8134076 C99.4860237,13.5524265 99.1253223,13.3640379 98.7096114,13.2489953 C98.2928957,13.1339526 97.8387536,13.0764313 97.3471848,13.0764313 L95.1932749,13.0764313 L95.1932749,19.6084929 L97.2484692,19.6084929 C97.6875403,19.6084929 98.1190758,19.5459479 98.5420711,19.4218626 C98.9650664,19.2972749 99.3415924,19.1028578 99.6731564,18.8386114 C100.003716,18.5741137 100.269218,18.2350142 100.469161,17.8213128 C100.669104,17.4078626 100.769327,16.9145355 100.769327,16.3423365 C100.769327,15.7452701 100.682166,15.2398863 100.508597,14.8259336 Z M54.2350758,25.0378531 C54.0564834,24.8014882 53.8326777,24.6244028 53.5644123,24.5060948 C53.7879668,24.3752275 53.9620379,24.2014076 54.0866256,23.9833791 C54.2112133,23.7656019 54.2735071,23.5169289 54.2735071,23.2368578 C54.2735071,22.6769668 54.0818531,22.2494502 53.698545,21.9540569 C53.315237,21.6581611 52.7980474,21.5107156 52.1467251,21.5107156 L49.0709668,21.5107156 L49.0709668,28.0425261 L52.1178389,28.0425261 C52.4755261,28.0425261 52.8010616,27.9978152 53.0949479,27.9076398 C53.3888341,27.8169621 53.6395166,27.6833318 53.8472464,27.5059953 C54.0547251,27.3286588 54.2159858,27.1081185 54.3307773,26.8436209 C54.4458199,26.5793744 54.5033412,26.2759431 54.5033412,25.9338294 C54.5033412,25.5728768 54.4139194,25.2744692 54.2350758,25.0378531 Z M53.7741517,14.1422085 C53.3679858,13.6747536 52.7287204,13.2454787 52.1256256,13.0809526 C51.8633886,13.0093649 51.5715118,12.9736967 51.2502464,12.9736967 C50.7981137,12.9736967 50.3849147,13.0563365 50.0114028,13.2208626 C49.6376398,13.385891 49.3163744,13.6162275 49.0476066,13.9116209 C48.7788389,14.2070142 48.5688483,14.5616872 48.4181374,14.9753886 C48.2674265,15.3888389 48.1920711,15.8444882 48.1920711,16.3423365 C48.1920711,16.8587725 48.2641611,17.3237156 48.4083412,17.7371659 C48.5525213,18.1511185 48.757237,18.5040332 49.0229905,18.7966635 C49.2887441,19.0887915 49.6047346,19.3143555 49.9719668,19.4731043 C50.3391991,19.6316019 50.7488815,19.7112275 51.2010142,19.7112275 C52.0341943,19.7112275 53.4775024,19.2550758 53.8886919,18.4429953 L52.9098246,17.5751517 C52.6315118,18.0182417 51.7621611,18.4138578 51.2404502,18.4138578 C50.9847441,18.4138578 50.7551611,18.3613602 50.5522038,18.2553602 C50.3489953,18.1493602 50.1769336,18.0034218 50.036019,17.8167915 C49.8948531,17.6301611 49.7886019,17.4106256 49.7162607,17.1589384 C49.6441706,16.9072512 49.6082512,16.6349668 49.6082512,16.3423365 C49.6082512,16.0376493 49.6441706,15.7590853 49.7162607,15.5071469 C49.7886019,15.2552085 49.893346,15.0374313 50.0309953,14.8538152 C50.1686445,14.6704502 50.3391991,14.5272749 50.5424076,14.4247915 C50.7453649,14.3220569 50.9749479,14.2708152 51.230654,14.2708152 C51.7475924,14.2708152 52.4780379,14.6131801 52.8196493,15.0628009 L53.7741517,14.1422085 Z M72.6223081,19.6084929 L72.6223081,18.3299621 L69.072564,18.3299621 L69.072564,16.7527725 L71.9292891,16.7527725 L71.9292891,15.4840379 L69.072564,15.4840379 L69.072564,14.3547109 L72.4751137,14.3547109 L72.4751137,13.0764313 L67.6958199,13.0764313 L67.6958199,19.6084929 L72.6223081,19.6084929 Z M80.5574882,19.6084929 L81.9342322,19.6084929 L81.9342322,13.0764313 L80.5574882,13.0764313 L80.5574882,19.6084929 Z M88.3502464,14.3642559 L88.3502464,13.0764313 L83.0201043,13.0764313 L83.0201043,14.3642559 L84.9969289,14.3642559 L84.9969289,19.6084929 L86.3734218,19.6084929 L86.3734218,14.3642559 L88.3502464,14.3642559 Z M94.1616588,19.6084929 L94.1616588,18.3299621 L90.6114123,18.3299621 L90.6114123,16.7527725 L93.4678863,16.7527725 L93.4678863,15.4840379 L90.6114123,15.4840379 L90.6114123,14.3547109 L94.0139621,14.3547109 L94.0139621,13.0764313 L89.2346682,13.0764313 L89.2346682,19.6084929 L94.1616588,19.6084929 Z M82.6423223,28.0425261 L82.6423223,26.7642464 L79.0925782,26.7642464 L79.0925782,25.1873081 L81.9493033,25.1873081 L81.9493033,23.9180711 L79.0925782,23.9180711 L79.0925782,22.7889953 L82.495128,22.7889953 L82.495128,21.5107156 L77.7153318,21.5107156 L77.7153318,28.0425261 L82.6423223,28.0425261 Z M60.1306351,14.1422085 C59.7244692,13.6747536 59.0852038,13.2454787 58.482109,13.0809526 C58.219872,13.0093649 57.9282464,12.9736967 57.606981,12.9736967 C57.1548483,12.9736967 56.7416493,13.0563365 56.3678863,13.2208626 C55.9941232,13.385891 55.6728578,13.6162275 55.40409,13.9116209 C55.1353223,14.2070142 54.9255829,14.5616872 54.7746209,14.9753886 C54.62391,15.3888389 54.5485545,15.8444882 54.5485545,16.3423365 C54.5485545,16.8587725 54.6206445,17.3237156 54.7648246,17.7371659 C54.9092559,18.1511185 55.1139716,18.5040332 55.3797251,18.7966635 C55.6452275,19.0887915 55.9614692,19.3143555 56.3284502,19.4731043 C56.6956825,19.6316019 57.1053649,19.7112275 57.5577488,19.7112275 C58.3909289,19.7112275 59.834237,19.2550758 60.2451754,18.4429953 L59.2663081,17.5751517 C58.9879953,18.0182417 58.1186445,18.4138578 57.5971848,18.4138578 C57.3412275,18.4138578 57.1118957,18.3613602 56.9086872,18.2553602 C56.7054787,18.1493602 56.5334171,18.0034218 56.3922512,17.8167915 C56.2513365,17.6301611 56.1450853,17.4106256 56.0727441,17.1589384 C56.000654,16.9072512 55.9647346,16.6349668 55.9647346,16.3423365 C55.9647346,16.0376493 56.000654,15.7590853 56.0727441,15.5071469 C56.1450853,15.2552085 56.2498294,15.0374313 56.3874787,14.8538152 C56.525128,14.6704502 56.6956825,14.5272749 56.8986398,14.4247915 C57.1020995,14.3220569 57.3314313,14.2708152 57.5873886,14.2708152 C58.1040758,14.2708152 58.8347725,14.6131801 59.1761327,15.0628009 L60.1306351,14.1422085 Z M60.8309384,25.1594265 L60.8309384,21.5107156 L59.4896114,21.5107156 L59.4896114,25.1780142 C59.4896114,25.7065071 59.366782,26.1202085 59.120872,26.4191185 C58.8749621,26.7175261 58.537872,26.866981 58.1101043,26.866981 C57.6820853,26.866981 57.3467536,26.7145118 57.104109,26.4095735 C56.8614645,26.1048863 56.739891,25.6879194 56.739891,25.1594265 L56.739891,21.5107156 L55.398564,21.5107156 L55.398564,25.1780142 C55.398564,25.6567725 55.463872,26.0797678 55.5949905,26.4467488 C55.7258578,26.813981 55.9094739,27.1234408 56.1458389,27.3753791 C56.3822038,27.6273175 56.6683033,27.8187204 57.0033839,27.9493365 C57.3387156,28.0802038 57.707455,28.1455118 58.1101043,28.1455118 C58.965891,28.1455118 59.6332891,27.8855355 60.1122986,27.3663365 C60.5915592,26.8466351 60.8309384,26.1111659 60.8309384,25.1594265 Z M66.9957678,26.0644455 C66.9957678,25.7097725 66.9287014,25.4173934 66.7945687,25.1873081 C66.660436,24.9572227 66.4863649,24.7675782 66.2723555,24.6181232 C66.058346,24.4686682 65.8187156,24.3521185 65.5539668,24.2679716 C65.2887156,24.1840758 65.0219573,24.1107299 64.7536919,24.0486872 C64.4856777,23.9866445 64.2651374,23.9303791 64.0925735,23.8806445 C63.9205118,23.8311611 63.7831137,23.7781611 63.6806303,23.7221469 C63.5786493,23.6663839 63.5065592,23.6023318 63.4651137,23.5307441 C63.4236682,23.4594076 63.4028199,23.3709905 63.4028199,23.2649905 C63.4028199,23.1901374 63.4188957,23.1188009 63.450545,23.0502275 C63.4824455,22.9819052 63.5369526,22.9198626 63.613564,22.8635972 C63.6904265,22.8075829 63.7891422,22.7626209 63.9107156,22.7284597 C64.0320379,22.6942986 64.1822464,22.6769668 64.3608389,22.6769668 C64.6675355,22.6769668 64.9435877,22.7344882 65.1897488,22.8495308 C65.4356588,22.9645735 65.6672512,23.1313602 65.8842749,23.3488863 L66.8518389,22.4343223 C66.5325829,22.1110474 66.176654,21.8588578 65.7840521,21.6787583 C65.3906967,21.4979052 64.9327867,21.407981 64.4088152,21.407981 C64.0767488,21.407981 63.7652796,21.4516872 63.4746588,21.5385972 C63.1840379,21.6257583 62.9303412,21.7516019 62.7130664,21.9166303 C62.4960427,22.0814076 62.3249858,22.2821043 62.2003981,22.5184692 C62.0760616,22.7548341 62.0137678,23.022346 62.0137678,23.3207536 C62.0137678,23.6445308 62.0647583,23.9150569 62.1669905,24.1328341 C62.2689716,24.3506114 62.4129005,24.5309621 62.5980237,24.6741374 C62.7833981,24.8170616 63.0051943,24.9351185 63.2639147,25.0285592 C63.5228863,25.1217488 63.8054692,25.2028815 64.1116635,25.2712038 C64.424891,25.3395261 64.680346,25.4048341 64.8782796,25.4673791 C65.0764645,25.5294218 65.2281801,25.5947299 65.3334265,25.6630521 C65.4389242,25.7316256 65.510763,25.8047204 65.5489431,25.8823365 C65.5873744,25.9602038 65.6064645,26.0518863 65.6064645,26.1576351 C65.6064645,26.4068104 65.5122701,26.5871611 65.3238815,26.6989384 C65.1354929,26.8109668 64.8400995,26.866981 64.4374502,26.866981 C64.1116635,26.866981 63.8037109,26.8094597 63.51309,26.6944171 C63.2224692,26.5793744 62.9587251,26.3879716 62.7226114,26.1202085 L61.7547962,26.9604218 C62.0102512,27.3274028 62.3681896,27.6165166 62.828109,27.8280142 C63.2877773,28.0395118 63.7989384,28.1455118 64.3608389,28.1455118 C64.8210095,28.1455118 65.2153697,28.0955261 65.5441706,27.9960569 C65.8729716,27.8963365 66.1462607,27.7549194 66.3635355,27.5715545 C66.5803081,27.3879384 66.7400616,27.168654 66.8422938,26.9137014 C66.9447773,26.6582464 66.9957678,26.3756635 66.9957678,26.0644455 Z M68.0826445,28.0425261 L69.4237204,28.0425261 L69.4237204,21.5107156 L68.0826445,21.5107156 L68.0826445,28.0425261 Z M76.2499194,28.0425261 L76.2499194,21.5107156 L74.9271801,21.5107156 L74.9271801,24.2724929 C74.9271801,24.3661848 74.9291896,24.4812275 74.9317014,24.6181232 C74.9349668,24.755019 74.9369763,24.8949289 74.9369763,25.0378531 C74.9369763,25.1747488 74.9384834,25.3038578 74.9417488,25.4251801 C74.944763,25.5467536 74.9467725,25.6381848 74.9467725,25.7002275 C74.9015592,25.6133175 74.833237,25.5000332 74.7402986,25.359872 C74.6481137,25.2197109 74.5599479,25.0878389 74.4768057,24.9632512 L72.1013507,21.5107156 L70.817545,21.5107156 L70.817545,28.0425261 L72.1392796,28.0425261 L72.1392796,25.1684692 C72.1392796,25.0750284 72.1377725,24.9599858 72.1347583,24.8233412 C72.1314929,24.6864455 72.1294834,24.5495498 72.1294834,24.4129052 C72.1294834,24.2697299 72.1279763,24.1373555 72.1249621,24.0160332 C72.1216967,23.8947109 72.1201896,23.8030284 72.1201896,23.7409858 C72.1646493,23.8276445 72.2332227,23.9414313 72.3261611,24.0813412 C72.4190995,24.2212512 72.5065118,24.3536256 72.589654,24.4779621 L75.052019,28.0425261 L76.2499194,28.0425261 Z M88.1194076,26.0644455 C88.1194076,25.7097725 88.0523412,25.4173934 87.9182085,25.1873081 C87.7840758,24.9572227 87.6095024,24.7675782 87.3959953,24.6181232 C87.182237,24.4686682 86.9423555,24.3521185 86.6773555,24.2679716 C86.4121043,24.1840758 86.145346,24.1107299 85.8773318,24.0486872 C85.6093175,23.9866445 85.3890284,23.9303791 85.2164645,23.8806445 C85.0439005,23.8311611 84.9065024,23.7781611 84.804019,23.7221469 C84.7020379,23.6663839 84.6301991,23.6023318 84.5890047,23.5307441 C84.5470569,23.4594076 84.5262085,23.3709905 84.5262085,23.2649905 C84.5262085,23.1901374 84.5425355,23.1188009 84.574436,23.0502275 C84.6065877,22.9819052 84.6608436,22.9198626 84.737455,22.8635972 C84.8138152,22.8075829 84.9125308,22.7626209 85.0341043,22.7284597 C85.1556777,22.6942986 85.3053839,22.6769668 85.4844787,22.6769668 C85.7911754,22.6769668 86.0674787,22.7344882 86.3133886,22.8495308 C86.5592986,22.9645735 86.7903886,23.1313602 87.0076635,23.3488863 L87.9757299,22.4343223 C87.6562227,22.1110474 87.2997915,21.8588578 86.9069384,21.6787583 C86.5148389,21.4979052 86.0566777,21.407981 85.5322038,21.407981 C85.2001374,21.407981 84.8889194,21.4516872 84.5980474,21.5385972 C84.3079289,21.6257583 84.0534787,21.7516019 83.8367062,21.9166303 C83.6194313,22.0814076 83.4483744,22.2821043 83.3240379,22.5184692 C83.1991991,22.7548341 83.1369052,23.022346 83.1369052,23.3207536 C83.1369052,23.6445308 83.1881469,23.9150569 83.2906303,24.1328341 C83.3926114,24.3506114 83.5362891,24.5309621 83.7216635,24.6741374 C83.9070379,24.8170616 84.1288341,24.9351185 84.3875545,25.0285592 C84.6462749,25.1217488 84.9288578,25.2028815 85.2353033,25.2712038 C85.5485308,25.3395261 85.804237,25.4048341 86.0016682,25.4673791 C86.1996019,25.5294218 86.3510664,25.5947299 86.4570664,25.6630521 C86.5623128,25.7316256 86.6341517,25.8047204 86.6723318,25.8823365 C86.710763,25.9602038 86.7296019,26.0518863 86.7296019,26.1576351 C86.7296019,26.4068104 86.6356588,26.5871611 86.4472701,26.6989384 C86.2591327,26.8109668 85.9634882,26.866981 85.56109,26.866981 C85.2353033,26.866981 84.9273507,26.8094597 84.6364787,26.6944171 C84.3458578,26.5793744 84.0823649,26.3879716 83.8465024,26.1202085 L82.8781848,26.9604218 C83.133891,27.3274028 83.491327,27.6165166 83.9517488,27.8280142 C84.4111659,28.0395118 84.922327,28.1455118 85.4844787,28.1455118 C85.9438957,28.1455118 86.3390095,28.0955261 86.6675592,27.9960569 C86.9966114,27.8963365 87.2699005,27.7549194 87.486673,27.5715545 C87.7036967,27.3879384 87.8639526,27.168654 87.9659336,26.9137014 C88.0679147,26.6582464 88.1194076,26.3756635 88.1194076,26.0644455 Z M93.8818389,26.0644455 C93.8818389,25.7097725 93.8145213,25.4173934 93.6806398,25.1873081 C93.5465071,24.9572227 93.3721848,24.7675782 93.1581754,24.6181232 C92.9444171,24.4686682 92.7045355,24.3521185 92.4400379,24.2679716 C92.1745355,24.1840758 91.9075261,24.1107299 91.639763,24.0486872 C91.3717488,23.9866445 91.1514597,23.9303791 90.9786445,23.8806445 C90.8063318,23.8311611 90.6689336,23.7781611 90.5669526,23.7221469 C90.464218,23.6663839 90.3923791,23.6023318 90.3511848,23.5307441 C90.3094882,23.4594076 90.2883886,23.3709905 90.2883886,23.2649905 C90.2883886,23.1901374 90.3049668,23.1188009 90.3368673,23.0502275 C90.369019,22.9819052 90.4230237,22.9198626 90.4996351,22.8635972 C90.5762464,22.8075829 90.6754645,22.7626209 90.7965355,22.7284597 C90.918109,22.6942986 91.0678152,22.6769668 91.24691,22.6769668 C91.5533555,22.6769668 91.82991,22.7344882 92.0755687,22.8495308 C92.3214787,22.9645735 92.5530711,23.1313602 92.7705972,23.3488863 L93.7381611,22.4343223 C93.4184028,22.1110474 93.0627251,21.8588578 92.6701232,21.6787583 C92.277019,21.4979052 91.8188578,21.407981 91.2946351,21.407981 C90.9625687,21.407981 90.6513507,21.4516872 90.3602275,21.5385972 C90.070109,21.6257583 89.81591,21.7516019 89.5988863,21.9166303 C89.3818626,22.0814076 89.2110569,22.2821043 89.086218,22.5184692 C88.9613791,22.7548341 88.8993365,23.022346 88.8993365,23.3207536 C88.8993365,23.6445308 88.950327,23.9150569 89.0530616,24.1328341 C89.1550427,24.3506114 89.2989716,24.5309621 89.4838436,24.6741374 C89.6694692,24.8170616 89.8910142,24.9351185 90.1497346,25.0285592 C90.4089573,25.1217488 90.6912891,25.2028815 90.9977346,25.2712038 C91.3109621,25.3395261 91.5664171,25.4048341 91.7638483,25.4673791 C91.961782,25.5294218 92.1137488,25.5947299 92.2194976,25.6630521 C92.3247441,25.7316256 92.3968341,25.8047204 92.4352654,25.8823365 C92.4729431,25.9602038 92.4922844,26.0518863 92.4922844,26.1576351 C92.4922844,26.4068104 92.39809,26.5871611 92.2097014,26.6989384 C92.021564,26.8109668 91.7259194,26.866981 91.3232701,26.866981 C90.9977346,26.866981 90.6892796,26.8094597 90.3991611,26.6944171 C90.1080379,26.5793744 89.8447962,26.3879716 89.6086825,26.1202085 L88.6406161,26.9604218 C88.8960711,27.3274028 89.2537583,27.6165166 89.7139289,27.8280142 C90.1740995,28.0395118 90.6845071,28.1455118 91.24691,28.1455118 C91.7070806,28.1455118 92.1011896,28.0955261 92.4302417,27.9960569 C92.7587915,27.8963365 93.0320806,27.7549194 93.2491043,27.5715545 C93.4668815,27.3879384 93.6261327,27.168654 93.7283649,26.9137014 C93.8308483,26.6582464 93.8818389,26.3756635 93.8818389,26.0644455 Z" id="Combined-Shape" fill="#FFFFFF"></path>
            <path d="M43.860891,16.9117725 L44.3032275,15.7264313 C44.3755687,15.5337725 44.4426351,15.3471422 44.5049289,15.1667915 C44.5672227,14.9861896 44.6146967,14.8339716 44.6476019,14.7093839 C44.6802559,14.8339716 44.7277299,14.9861896 44.7900237,15.1667915 C44.8523175,15.3471422 44.9193839,15.5337725 44.9917251,15.7264313 L45.4343128,16.9117725 L43.860891,16.9117725 Z" id="Fill-29" fill="#FFFFFF"></path>
            <path d="M105.900782,31.5036019 C105.900782,34.2892417 103.64263,36.5473934 100.856991,36.5473934 L5.16938389,36.5473934 C2.38374408,36.5473934 0.125592417,34.2892417 0.125592417,31.5036019 L0.125592417,5.16511374 C0.125592417,2.37947393 2.38374408,0.121322275 5.16938389,0.121322275 L100.856991,0.121322275 C103.64263,0.121322275 105.900782,2.37947393 105.900782,5.16511374 L105.900782,31.5036019 Z" id="Stroke-2" stroke="#FFFFFF"></path>
            <path d="M17.7035071,11.4464929 L16.1280758,13.6157251 C15.3383507,14.7033555 15.5827536,16.6304455 16.6613412,17.4091185 L19.5821185,19.517564 C20.0832322,19.8795213 20.1226682,20.2379621 19.8850474,20.6205166 L20.3092986,20.9357536 L21.7875213,18.8873412 C22.7013318,17.621872 22.6217062,15.8994976 21.266564,14.9125924 L18.321673,12.7674739 C17.9687583,12.5105118 17.9325877,12.1518199 18.1277583,11.7494218 L17.7035071,11.4464929" id="Fill-5" fill="#FFFFFF"></path>
            <path d="M20.2309289,1.85525118 L17.7783602,5.24725118 C16.6281848,6.83800474 17.0464076,9.55456872 18.6178199,10.7077583 L22.6498389,13.6669668 C23.4671943,14.2667962 23.5736967,15.7945024 22.9786398,16.5779479 L23.3207536,16.8344076 L26.1016209,12.9211991 C27.350763,11.1641611 27.2781706,8.56791469 25.3171706,7.14394787 L21.004327,4.01242654 C20.4007299,3.574109 20.0993081,2.82909479 20.6021801,2.11773934 L20.2309289,1.85525118" id="Fill-6" fill="#FFFFFF"></path>
            <path d="M13.7674408,23.1268389 L17.0175213,23.1268389 L17.5970047,25.0973839 C19.3673555,25.0973839 21.1377062,25.0973839 22.9080569,25.0973839 L23.4875403,23.1268389 L26.7373697,23.1268389 L26.3113602,21.6777536 C22.2723081,21.6777536 18.2327536,21.6777536 14.1934502,21.6777536 L13.7674408,23.1268389" id="Fill-7" fill="#FFFFFF"></path>
            <path d="M14.0130995,32.1205118 L12.0656635,32.1205118 L12.0656635,30.4903223 L14.0130995,30.4903223 C15.4451043,30.4903223 15.3581943,32.1205118 14.0130995,32.1205118 Z M12.0656635,27.6908673 L13.8119005,27.6908673 C14.9027962,27.6908673 14.9422322,29.2153081 13.8804739,29.2153081 L12.0656635,29.2153081 L12.0656635,27.6908673 Z M16.5616209,31.2127299 C16.4229668,30.2755592 16.045436,30.0512512 15.2903744,29.7184313 C15.8613175,29.3843555 16.2122227,28.8927867 16.2122227,28.2196114 C16.2122227,26.8732607 15.1092701,26.3249242 13.906346,26.3249242 L10.5454929,26.3249242 L10.5454929,33.4708815 L13.8749479,33.4708815 C15.296654,33.4708815 16.803763,32.8491991 16.5616209,31.2127299 Z" id="Fill-10" fill="#FFFFFF"></path>
            <path d="M20.6855735,32.1205118 L18.7381374,32.1205118 L18.7381374,30.4903223 L20.6855735,30.4903223 C22.1175782,30.4903223 22.0304171,32.1205118 20.6855735,32.1205118 Z M18.7381374,27.6908673 L20.4843744,27.6908673 C21.5755213,27.6908673 21.6147062,29.2153081 20.5529479,29.2153081 L18.7381374,29.2153081 L18.7381374,27.6908673 Z M23.2340948,31.2127299 C23.0954408,30.2755592 22.7176588,30.0512512 21.9628483,29.7184313 C22.5337915,29.3843555 22.8844455,28.8927867 22.8844455,28.2196114 C22.8844455,26.8732607 21.7819953,26.3249242 20.5788199,26.3249242 L17.2179668,26.3249242 L17.2179668,33.4708815 L20.5474218,33.4708815 C21.969128,33.4708815 23.4759858,32.8491991 23.2340948,31.2127299 Z" id="Fill-11" fill="#FFFFFF"></path>
            <path d="M27.3577962,32.1205118 L25.4106114,32.1205118 L25.4106114,30.4903223 L27.3577962,30.4903223 C28.7900521,30.4903223 28.702891,32.1205118 27.3577962,32.1205118 Z M25.4106114,27.6908673 L27.1565972,27.6908673 C28.2477441,27.6908673 28.2869289,29.2153081 27.2254218,29.2153081 L25.4106114,29.2153081 L25.4106114,27.6908673 Z M29.9065687,31.2127299 C29.7679147,30.2755592 29.3903839,30.0512512 28.6353223,29.7184313 C29.2062654,29.3843555 29.5569194,28.8927867 29.5569194,28.2196114 C29.5569194,26.8732607 28.454218,26.3249242 27.2512938,26.3249242 L23.8904408,26.3249242 L23.8904408,33.4708815 L27.2198957,33.4708815 C28.6413507,33.4708815 30.1484597,32.8491991 29.9065687,31.2127299 Z" id="Fill-12" fill="#FFFFFF"></path>
            <path d="M77.6814218,17.1589384 C77.5962701,17.4045972 77.4681659,17.6143365 77.2981137,17.7886588 C77.1278104,17.9627299 76.9092796,18.0981185 76.6437773,18.1945735 C76.3785261,18.2910284 76.0652986,18.3392559 75.7053507,18.3392559 L75.0266493,18.3392559 L75.0266493,14.3456682 L75.7543318,14.3456682 C76.481763,14.3456682 77.0059858,14.5119526 77.3277536,14.8447725 C77.6485166,15.1773412 77.8095261,15.6769479 77.8095261,16.3423365 C77.8095261,16.6409953 77.7670758,16.9130284 77.6814218,17.1589384 Z" id="Path" fill="#FFFFFE"></path>
            <path d="M99.2250427,17.1589384 C99.1401422,17.4045972 99.0122891,17.6143365 98.842237,17.7886588 C98.6714313,17.9627299 98.4531517,18.0981185 98.1876493,18.1945735 C97.9223981,18.2910284 97.6094218,18.3392559 97.2484692,18.3392559 L96.5697678,18.3392559 L96.5697678,14.3456682 L97.2979526,14.3456682 C98.0256351,14.3456682 98.5498578,14.5119526 98.8716256,14.8447725 C99.1923886,15.1773412 99.3533981,15.6769479 99.3533981,16.3423365 C99.3533981,16.6409953 99.3106967,16.9130284 99.2250427,17.1589384 Z" id="Path" fill="#FFFFFE"></path>
            <path d="M52.8889763,26.5730948 C52.7327393,26.7253128 52.4913507,26.8014218 52.165564,26.8014218 L50.3834076,26.8014218 L50.3834076,25.1127062 L52.165564,25.1127062 C52.804327,25.1127062 53.1235829,25.3922749 53.1235829,25.9521659 C53.1235829,26.2136493 53.0454645,26.4203744 52.8889763,26.5730948 Z" id="Path" fill="#FFFFFE"></path>
            <path d="M50.3834076,22.7141422 L52.0892038,22.7141422 C52.3828389,22.7141422 52.5935829,22.7671422 52.721436,22.8731422 C52.8490379,22.9786398 52.9128389,23.1343744 52.9128389,23.3395924 C52.9128389,23.5199431 52.8570758,23.6676398 52.7452986,23.7826825 C52.6335213,23.8982275 52.4370948,23.9554976 52.156019,23.9554976 L50.3834076,23.9554976 L50.3834076,22.7141422 Z" id="Path" fill="#FFFFFE"></path>
            <path d="M64.3872133,16.0253412 L62.5877251,16.0253412 L62.5877251,14.3456682 L64.3872133,14.3456682 C64.6954171,14.3456682 64.9365545,14.409218 65.1101232,14.5368199 C65.2836919,14.6641706 65.3706019,14.8774265 65.3706019,15.1758341 C65.3706019,15.7417536 65.0428057,16.0253412 64.3872133,16.0253412 Z" id="Path" fill="#FFFFFE"></path>
        </g>
        <g id="warranty" opacity="0.55" transform="translate(109.000000, 441.000000)" fill="#FFFFFF" fill-rule="nonzero">
            <path d="M31.5749865,23.3271028 C31.163241,23.6429831 30.71504,23.909561 30.2389568,24.1200172 C29.6831659,25.4144994 28.7318491,26.507069 27.504954,27.2259906 C26.5098443,27.8090759 25.3755552,28.1171964 24.2245831,28.1171964 C23.9775821,28.1171964 23.7318169,28.1032443 23.4879826,28.0754186 C22.4898607,28.8240471 21.2980307,29.2727069 20.046729,29.3612004 L30.2629,39.728972 L31.2710625,31.8853427 L39,30.8622981 L31.5749865,23.3271028 Z" id="Shape"></path>
            <path d="M15.5119402,28.0754186 C15.2681059,28.1031659 15.0224179,28.117118 14.7754169,28.117118 C13.6244448,28.117118 12.4900785,27.8089975 11.495046,27.2259123 C10.2679964,26.5069123 9.31683406,25.4144994 8.76104322,24.1200172 C8.28503725,23.909561 7.83683626,23.6430615 7.42493624,23.3271028 L0,30.8622981 L7.72893746,31.8853427 L8.73710003,39.728972 L18.953271,29.361122 C17.701892,29.2726285 16.5101393,28.8238904 15.5119402,28.0754186 Z" id="Shape"></path>
            <path d="M19.5,6.92523364 C23.2180404,6.92523364 26.2429907,9.95010731 26.2429907,13.6682243 C26.2429907,17.3862647 23.2180404,20.411215 19.5,20.411215 C15.7819596,20.411215 12.7570093,17.3862647 12.7570093,13.6682243 C12.7570093,9.95018395 15.7819596,6.92523364 19.5,6.92523364 Z M17.781,10.7 L15.063,10.7 L15.063,11.87 L16.323,11.87 L16.323,17 L17.781,17 L17.781,10.7 Z M21.579,17.108 C22.1010026,17.108 22.565998,16.9790013 22.974,16.721 C23.382002,16.4629987 23.7014988,16.0895024 23.9325,15.6005 C24.1635012,15.1114976 24.279,14.5280034 24.279,13.85 C24.279,13.1719966 24.1635012,12.5885024 23.9325,12.0995 C23.7014988,11.6104976 23.382002,11.2370013 22.974,10.979 C22.565998,10.7209987 22.1010026,10.592 21.579,10.592 C21.0569974,10.592 20.592002,10.7209987 20.184,10.979 C19.775998,11.2370013 19.4565012,11.6104976 19.2255,12.0995 C18.9944988,12.5885024 18.879,13.1719966 18.879,13.85 C18.879,14.5280034 18.9944988,15.1114976 19.2255,15.6005 C19.4565012,16.0895024 19.775998,16.4629987 20.184,16.721 C20.592002,16.9790013 21.0569974,17.108 21.579,17.108 Z" id="Combined-Shape"></path>
            <path d="M32.8037383,13.6683024 C32.8037383,12.3971322 32.2472674,11.2116544 31.3237722,10.407848 C31.727021,9.24353946 31.6241278,7.93510822 30.9970575,6.83415121 C30.3699101,5.73319419 29.3032893,4.98859917 28.1067226,4.76058062 C27.8815908,3.54799684 27.1470029,2.46688112 26.0608055,1.83125694 C24.9744539,1.19563275 23.683318,1.09134883 22.5347681,1.50012619 C21.7415272,0.563914338 20.5720133,0 19.3177185,0 C18.0634237,0 16.8939098,0.563914338 16.100746,1.50004807 C14.952119,1.09134883 13.660983,1.19563275 12.5747085,1.83117882 C11.4885111,2.466803 10.7538462,3.54791873 10.5287143,4.7605025 C9.33230177,4.98867729 8.26560397,5.73327231 7.63845657,6.83407309 C7.01123209,7.9350301 6.90833892,9.24346135 7.31174183,10.4077699 C6.38816959,11.2116544 5.8317757,12.3970541 5.8317757,13.6682243 C5.8317757,14.9393945 6.38824666,16.1248723 7.31174183,16.9286787 C6.90849306,18.0929872 7.01138624,19.4014185 7.63845657,20.5023755 C8.26560397,21.6033325 9.3322247,22.3479275 10.5287914,22.5759461 C10.7539232,23.7885299 11.4885111,24.8696456 12.5747085,25.5052698 C13.660983,26.140894 14.9521961,26.2451779 16.100746,25.8364005 C16.8939098,26.7725343 18.0633466,27.3364486 19.3177185,27.3364486 C20.5720903,27.3364486 21.7415272,26.7725343 22.534691,25.8364005 C23.683318,26.2450998 24.9744539,26.1408158 26.0607284,25.5052698 C27.1469258,24.8696456 27.8815908,23.7885299 28.1067226,22.5759461 C29.3031352,22.3477713 30.369833,21.6031763 30.9969804,20.5023755 C31.6242049,19.4014185 31.727098,18.0929872 31.3236951,16.9286787 C32.2472674,16.1248723 32.8037383,14.9393945 32.8037383,13.6683024 Z M19.3177185,22.8845796 C14.3036222,22.8845796 10.2242739,18.7500931 10.2242739,13.6682243 C10.2242739,8.58635546 14.3036222,4.45194707 19.3177185,4.45194707 C24.3318147,4.45194707 28.4111631,8.58643358 28.4111631,13.6683024 C28.4111631,18.7501713 24.3318147,22.8845796 19.3177185,22.8845796 Z" id="Shape"></path>
            <path d="M21.579,15.875 C21.9630019,15.875 22.2644989,15.7100016 22.4835,15.38 C22.7025011,15.0499983 22.812,14.5400034 22.812,13.85 C22.812,13.1599965 22.7025011,12.6500016 22.4835,12.32 C22.2644989,11.9899983 21.9630019,11.825 21.579,11.825 C21.2009981,11.825 20.9025011,11.9899983 20.6835,12.32 C20.4644989,12.6500016 20.355,13.1599965 20.355,13.85 C20.355,14.5400034 20.4644989,15.0499983 20.6835,15.38 C20.9025011,15.7100016 21.2009981,15.875 21.579,15.875 Z" id="10"></path>
        </g>
        <g id="Group-30" transform="translate(1.000000, 381.000000)" fill-rule="nonzero" stroke="#FFFFFF" stroke-width="2">
            <polyline id="Path-15" points="9.99980164 23.9994812 9.99980164 6.01512146 9.00794983 6.01512146 1.03491211 12.9953613 1.00205994 0.00346374512 31.0042725 0.00346374512 31.0042725 30.0010681 0.0100708008 30.0010681"></polyline>
            <polygon id="Path-18" points="14.0080566 6.01045227 22.0081177 6.01045227 22.0081177 23.0057983 14.0080566 23.0057983"></polygon>
        </g>
        <g id="Group-30-Copy" transform="translate(35.000000, 381.000000)" fill-rule="nonzero" stroke="#FFFFFF" stroke-width="2">
            <polyline id="Path-15" points="0.0100708008 22.9984741 10.0171509 22.9984741 10.0171509 17.0028687 7.0045166 15.0022659 10.0171509 12.9939575 10.0171509 5.99743652 1.00205994 5.99743652 1.00205994 0.00346374512 31.0042725 0.00346374512 31.0042725 30.0010681 0.0100708008 30.0010681"></polyline>
            <polygon id="Path-18" points="14.0080566 6.01045227 22.0081177 6.01045227 22.0081177 23.0057983 14.0080566 23.0057983"></polygon>
            <path d="M7.0020752,15.0136719 L0.0139465332,15.0136719" id="Path-19"></path>
        </g>
        <g id="Group-30-Copy-2" transform="translate(69.000000, 381.000000)" fill-rule="nonzero">
            <polyline id="Path-15" stroke="#FFFFFF" stroke-width="2" points="27.0142212 16.0109253 16.0255127 4.99053955 1.00205994 20.0202026 1.00205994 0.00346374512 31.0042725 0.00346374512 31.0042725 30.0010681 0.0100708008 30.0010681"></polyline>
            <polygon id="Path-20" stroke="#FFFFFF" stroke-width="2" points="16.0071411 13.0028076 22.0083618 19.0010986 22.0083618 24.9957275 10.0272827 24.9957275 10.0272827 19.0010986"></polygon>
            <rect id="Rectangle-28" fill="#FFFFFF" x="13" y="20" width="2" height="2"></rect>
            <rect id="Rectangle-28-Copy" fill="#FFFFFF" x="17" y="20" width="2" height="2"></rect>
            <rect id="Rectangle-28-Copy-2" fill="#FFFFFF" x="19" y="13" width="2" height="4"></rect>
        </g>
        <g id="Group-30" transform="translate(103.000000, 381.000000)" fill-rule="nonzero" stroke="#FFFFFF" stroke-width="2">
            <path d="M21.15979,5.02282715 C22.9622803,5.02282715 25.0577393,5.43615723 25.0577393,8.98034668 C25.0577393,12.5245361 22.0819092,12.9953613 19.9998779,12.9953613 C18.6118571,12.9953613 12.2902018,12.9953613 1.03491211,12.9953613 L1.00205994,0.00346374512 L31.0042725,0.00346374512 L31.0042725,30.0010681 L0.00979614258,30.0010681" id="Path-15"></path>
            <path d="M0.0336914062,17.0479736 L26.0003662,17.0479736" id="Path-16"></path>
            <path d="M0.0266113281,20.9862054 C7.5304362,20.9862058 12.1804199,20.9862061 13.9765625,20.9862061 C16.6707764,20.9862061 17.9914551,21.1329346 17.9914551,23.043335 C17.9914551,24.9537354 16.8267822,25.0087891 16.0158691,25.0087891" id="Path-17"></path>
        </g>
        <polyline id="Path-37-Copy" stroke="#00AF86" stroke-width="2" fill-rule="nonzero" transform="translate(215.000000, 459.000000) rotate(-180.000000) translate(-215.000000, -459.000000) " points="222 439 208 459 222 479"></polyline>
        <polyline id="Path-37-Copy-2" stroke="#00AF86" stroke-width="2" fill-rule="nonzero" transform="translate(170.000000, 459.000000) rotate(-360.000000) translate(-170.000000, -459.000000) " points="177 439 163 459 177 479"></polyline>
        <polygon id="Star-Copy-3" fill="#FFFFFF" points="22.5 500.25 18.0916106 502.567627 18.9335381 497.658814 15.3670761 494.182373 20.2958053 493.466186 22.5 489 24.7041947 493.466186 29.6329239 494.182373 26.0664619 497.658814 26.9083894 502.567627"></polygon>
        <polygon id="Star-Copy-4" fill="#00AF86" points="37.5 500.25 33.0916106 502.567627 33.9335381 497.658814 30.3670761 494.182373 35.2958053 493.466186 37.5 489 39.7041947 493.466186 44.6329239 494.182373 41.0664619 497.658814 41.9083894 502.567627"></polygon>
        <polygon id="Star" fill="#BF406F" points="7.5 500.269008 3.09161061 502.567627 3.91546029 497.664688 0.367076128 494.182373 5.28463263 493.450808 7.5 489 9.71536737 493.450808 14.6329239 494.182373 11.0845397 497.664688 11.9083894 502.567627"></polygon>
        <g id="Group-7" transform="translate(120.000000, 101.000000)" fill="#FFFFFF">
            <g id="Group-12">
                <circle id="SVGID_1_" opacity="0.200000003" cx="15" cy="15" r="15"></circle>
                <path d="M18.5820896,8.00261176 L16.8059701,8.00261176 C16.8059701,8.00261176 13.7761194,7.80264907 13.7761194,10.9020708 L13.7761194,13.001679 L12,13.001679 L12,14.7013618 L13.7761194,14.7013618 L13.7761194,22 L16.1791045,22 L16.1791045,14.7013618 L18.4776119,14.7013618 L19,13.001679 L16.1791045,13.001679 L16.1791045,10.8020894 C16.1791045,10.8020894 16.1791045,10.0022386 17.119403,10.0022386 L18.5820896,10.0022386 L18.5820896,8.00261176 Z" id="Shape"></path>
            </g>
            <g id="Group-16" transform="translate(90.000000, 0.000000)">
                <path d="M15,0 C6.7,0 0,6.7 0,15 C0,23.3 6.7,30 15,30 C23.3,30 30,23.3 30,15 C30,6.7 23.2,0 15,0 Z" id="Shape" opacity="0.200000003"></path>
                <path d="M21.3783784,11.9243697 L21.3783784,12.3277311 C21.3783784,16.3613445 18.3378378,21 12.6621622,21 C10.9391892,21 9.31756757,20.4957983 8,19.5882353 L8.70945946,19.5882353 C10.1283784,19.5882353 11.4459459,19.0840336 12.5608108,18.2773109 C11.2432432,18.2773109 10.1283784,17.3697479 9.72297297,16.1596639 C9.92567568,16.1596639 10.1283784,16.2605042 10.3310811,16.2605042 C10.6351351,16.2605042 10.8378378,16.2605042 11.1418919,16.1596639 C9.72297297,15.8571429 8.70945946,14.6470588 8.70945946,13.1344538 L8.70945946,13.1344538 C9.11486486,13.3361345 9.62162162,13.5378151 10.1283784,13.5378151 C9.31756757,13.0336134 8.81081081,12.0252101 8.81081081,11.0168067 C8.81081081,10.4117647 8.91216216,9.90756303 9.21621622,9.50420168 C10.7364865,11.3193277 12.9662162,12.5294118 15.5,12.7310924 C15.3986486,12.5294118 15.3986486,12.2268908 15.3986486,12.0252101 C15.3986486,10.3109244 16.8175676,9 18.4391892,9 C19.3513514,9 20.1621622,9.40336134 20.6689189,10.0084034 C21.3783784,9.90756303 21.9864865,9.60504202 22.5945946,9.30252101 C22.3918919,10.0084034 21.8851351,10.6134454 21.277027,11.0168067 C21.8851351,10.9159664 22.4932432,10.8151261 23,10.512605 C22.4932432,10.9159664 21.9864865,11.5210084 21.3783784,11.9243697" id="Shape"></path>
            </g>
            <g id="Group-17" transform="translate(60.000000, 0.000000)">
                <g id="Group-15">
                    <path d="M15,0 C6.7,0 0,6.7 0,15 C0,23.3 6.7,30 15,30 C23.3,30 30,23.3 30,15 C30,6.7 23.2,0 15,0 Z" id="Shape" opacity="0.200000003"></path>
                    <path d="M12.6535433,22 C8.96850394,22 6,19.1 6,15.5 C6,11.9 8.96850394,9 12.6535433,9 C14.496063,9 15.9291339,9.6 17.1574803,10.7 L15.3149606,12.4 C14.8031496,11.9 13.984252,11.4 12.6535433,11.4 C10.4015748,11.4 8.55905512,13.2 8.55905512,15.5 C8.55905512,17.8 10.4015748,19.6 12.6535433,19.6 C15.3149606,19.6 16.2362205,17.7 16.4409449,16.8 L12.6535433,16.8 L12.6535433,14.6 L18.8976378,14.6 C19,14.9 19,15.3 19,15.7 C19,19.4 16.4409449,22 12.6535433,22 Z" id="Shape"></path>
                </g>
                <polygon id="Shape" points="27 15.9642857 25.0714286 15.9642857 25.0714286 18 23.0357143 18 23.0357143 15.9642857 21 15.9642857 21 14.0357143 23.0357143 14.0357143 23.0357143 12 25.0714286 12 25.0714286 14.0357143 27 14.0357143"></polygon>
            </g>
            <g id="Group-10" transform="translate(30.000000, 0.000000)">
                <path d="M15,0 C6.7,0 0,6.7 0,15 C0,23.3 6.7,30 15,30 C23.3,30 30,23.3 30,15 C30,6.7 23.2,0 15,0 Z" id="Shape-Copy" opacity="0.200000003"></path>
                <path d="M10.675998,6.78810594 C11.5460628,6.10216253 13.2188509,5.90556376 13.9071458,6.03944563 C14.5960825,6.17248269 14.9558521,6.55896198 14.960264,7.02955996 L14.999971,13.0299054 C15.0030593,13.5011471 14.759162,13.9342919 14.4575091,13.9926239 C14.1542518,14.0496685 13.7080092,13.7695947 13.4627081,13.3687134 L10.3239292,8.22363494 C10.080473,7.82223072 9.58975055,7.64518321 10.675998,6.78810594 Z M10.0799691,18.9600234 L13.1439554,17.7126611 C13.5709177,17.538493 13.9533133,17.0538824 13.9962856,16.6327562 C14.0377413,16.2118089 13.7273682,15.7119424 13.3063948,15.5202814 L10.0697413,14.0438566 C9.64845675,13.8522851 9.16242206,14.3066075 9.03420503,15.050032 C9.03420503,15.050032 8.95724371,17.6389316 9.03420503,18.1749471 C9.11206081,18.7105151 9.65308455,19.1349968 10.0799691,18.9600234 Z M14.9997545,19.0022972 C15.0089263,18.4826479 14.7599389,18.034441 14.4464317,18.0024136 C14.1328054,17.9699881 13.6349101,18.2681438 13.3375626,18.6638859 L11.1554395,21.5792656 C10.8582905,21.9754501 11.0059121,22.9059262 11.4389698,23.082077 L13.7207117,23.965087 C14.1550399,24.1411494 14.9199086,23.6200845 14.9288025,23.102072 L14.9997545,19.0022972 Z M21.322898,18.9607927 L18.3349426,18.0967401 C17.8505065,17.9567001 17.3005136,17.9699147 17.1143788,18.1284901 C16.9279838,18.2852337 16.9741598,18.7806727 17.2182206,19.2278325 L19.1039355,22.6993072 C19.3477794,23.1462926 20.3228951,23.0697525 20.5914529,22.6359817 C20.5914529,22.6359817 21.7280761,20.9492213 21.9371038,20.3170133 C22.1460881,19.683366 21.8069439,19.1008327 21.322898,18.9607927 Z M21.9347507,13.2236524 C21.8076548,12.8309037 20.9253951,11.6729406 20.4476392,11.2782416 C19.9702928,10.8826845 19.4243211,10.9322608 19.1164494,11.2795288 L17.2979634,13.343166 C16.9899279,13.690395 16.9075449,14.2411559 17.1129701,14.5650205 C17.3182315,14.8888851 17.865882,15.072368 18.3306171,14.9729814 L21.4760755,14.4173838 C22.0438713,14.2876117 22.0639348,13.6164011 21.9347507,13.2236524 Z" id="Yelp" fill-rule="nonzero"></path>
            </g>
        </g>
        <path d="M26.5268065,426.482353 C27.3038112,426.827453 27.9098657,427.345095 28.3449883,428.035294 C28.780111,428.725494 28.997669,429.541172 28.997669,430.482353 C28.997669,431.831379 28.5780928,432.921564 27.7389277,433.752941 C26.8997627,434.584318 25.8275124,435 24.5221445,435 C23.2167767,435 22.1367564,434.576475 21.2820513,433.729412 C20.4273462,432.882349 20,431.800007 20,430.482353 C20,429.854899 20.0776993,429.227454 20.2331002,428.6 C20.3885012,427.972546 20.7303781,427.031379 21.2587413,425.776471 L23.962704,419 L28.5780886,419 L26.5268065,426.482353 Z M37.5291375,426.482353 C38.3061422,426.827453 38.9121967,427.345095 39.3473193,428.035294 C39.782442,428.725494 40,429.541172 40,430.482353 C40,431.831379 39.5804238,432.921564 38.7412587,433.752941 C37.9020937,434.584318 36.8298434,435 35.5244755,435 C34.2191077,435 33.1390874,434.576475 32.2843823,433.729412 C31.4296772,432.882349 31.002331,431.800007 31.002331,430.482353 C31.002331,429.854899 31.0800303,429.227454 31.2354312,428.6 C31.3908322,427.972546 31.7327091,427.031379 32.2610723,425.776471 L34.965035,419 L39.5804196,419 L37.5291375,426.482353 Z" id="“-copy" fill="#FFFFFF"></path>
        <polyline id="Path-37-Copy-3" stroke="#FFFFFF" stroke-width="2" fill-rule="nonzero" transform="translate(303.000000, 459.000000) rotate(-180.000000) translate(-303.000000, -459.000000) " points="310 439 296 459 310 479"></polyline>
        <polyline id="Path-37-Copy-4" stroke="#FFFFFF" stroke-width="2" fill-rule="nonzero" transform="translate(258.000000, 459.000000) rotate(-360.000000) translate(-258.000000, -459.000000) " points="265 439 251 459 265 479"></polyline>
        <g id="Group-9" transform="translate(138.000000, 233.000000)" fill-rule="nonzero" stroke="#00AF86" stroke-width="2">
            <g id="Group-31-Copy-9">
                <polyline id="Path-22" points="0.101196289 42.0361328 43.006134 42.0361328 43.006134 0 1.00671387 0 1.00671387 19.5488281"></polyline>
                <g id="Group-35" transform="translate(17.000000, 21.000000) scale(-1, 1) translate(-17.000000, -21.000000) translate(0.000000, 6.000000)">
                    <g id="Group-34" transform="translate(17.000000, 17.000000) scale(-1, 1) translate(-17.000000, -17.000000) translate(0.000000, 13.000000)">
                        <rect id="Rectangle-30" x="1" y="1" width="32" height="6"></rect>
                    </g>
                    <g id="Group-34-Copy" transform="translate(17.000000, 7.500000) scale(-1, 1) translate(-17.000000, -7.500000) ">
                        <rect id="Rectangle-30" x="1" y="1" width="32" height="13"></rect>
                    </g>
                    <polyline id="Path-27" points="14.0097656 21.0567627 14.0097656 29.0567627 20.0070801 29.0567627 20.0070801 22.3350431 20.0070801 21.0567627"></polyline>
                </g>
            </g>
            <path d="M12.5,14 L12.5,6" id="Path-36-Copy-2"></path>
            <path d="M21.5,16 L21.5,6" id="Path-36-Copy-3"></path>
        </g>
        <g id="Group-9-Copy" transform="translate(138.000000, 184.000000)" fill-rule="nonzero" stroke="#BFBFBF" stroke-width="2">
            <g id="Group-31-Copy-9">
                <polyline id="Path-22" points="0.101196289 42.0361328 43.006134 42.0361328 43.006134 0 1.00671387 0 1.00671387 19.5488281"></polyline>
                <g id="Group-35" transform="translate(17.000000, 21.000000) scale(-1, 1) translate(-17.000000, -21.000000) translate(0.000000, 6.000000)">
                    <g id="Group-34" transform="translate(17.000000, 17.000000) scale(-1, 1) translate(-17.000000, -17.000000) translate(0.000000, 13.000000)">
                        <rect id="Rectangle-30" x="1" y="1" width="32" height="6"></rect>
                    </g>
                    <g id="Group-34-Copy" transform="translate(17.000000, 7.500000) scale(-1, 1) translate(-17.000000, -7.500000) ">
                        <rect id="Rectangle-30" x="1" y="1" width="32" height="13"></rect>
                    </g>
                    <polyline id="Path-27" points="14.0097656 21.0567627 14.0097656 29.0567627 20.0070801 29.0567627 20.0070801 22.3350431 20.0070801 21.0567627"></polyline>
                </g>
            </g>
            <path d="M12.5,14 L12.5,6" id="Path-36-Copy-2"></path>
            <path d="M21.5,16 L21.5,6" id="Path-36-Copy-3"></path>
        </g>
    </g>
</svg>