<?xml version="1.0" encoding="utf-8"?>
<!-- Generator: Adobe Illustrator 18.0.0, SVG Export Plug-In . SVG Version: 6.00 Build 0)  -->
<!DOCTYPE svg PUBLIC "-//W3C//DTD SVG 1.1//EN" "http://www.w3.org/Graphics/SVG/1.1/DTD/svg11.dtd">
<svg version="1.1" xmlns="http://www.w3.org/2000/svg" xmlns:xlink="http://www.w3.org/1999/xlink" x="0px" y="0px" width="106px"
	 height="20px" viewBox="0 0 106 20" enable-background="new 0 0 106 20" xml:space="preserve">
<g id="Layer_2" display="none">
	<rect x="86" display="inline" fill="#3220B7" width="20" height="20"/>
	<rect x="66" display="inline" fill="#3B99B2" width="20" height="20"/>
	<rect display="inline" fill="#DD28D4" width="66" height="20"/>
</g>
<g id="Layer_1">
	<g>
		<g>
			<path fill="#2C3035" d="M0.1,0.1h3.1c2,0,2.9,1.1,2.9,3.1v6.3c0,2-1,3.1-2.9,3.1H0.1V0.1z M2,1.9v9h1.1c0.6,0,1-0.3,1-1.2V3.2
				c0-0.9-0.4-1.2-1-1.2H2z"/>
			<path fill="#2C3035" d="M8.2,0.1h2v12.5h-2V0.1z"/>
			<path fill="#2C3035" d="M16.5,12.7c-0.1-0.3-0.2-0.5-0.2-1.5v-2c0-1.2-0.4-1.6-1.3-1.6h-0.7v5.1h-2V0.1h3c2,0,2.9,0.9,2.9,2.9v1
				c0,1.3-0.4,2.1-1.3,2.5c1,0.4,1.3,1.4,1.3,2.7v1.9c0,0.6,0,1.1,0.2,1.5H16.5z M14.4,1.9v3.9h0.8c0.7,0,1.2-0.3,1.2-1.3V3.2
				c0-0.9-0.3-1.3-1-1.3H14.4z"/>
			<path fill="#2C3035" d="M22.4,5.4h2.7v1.8h-2.7v3.7h3.4v1.8h-5.4V0.1h5.4v1.8h-3.4V5.4z"/>
			<path fill="#2C3035" d="M33.1,8v1.7c0,2-1,3.2-2.9,3.2c-1.9,0-2.9-1.1-2.9-3.2V3.2c0-2,1-3.2,2.9-3.2c1.9,0,2.9,1.1,2.9,3.2v1.2
				h-1.9V3c0-0.9-0.4-1.2-1-1.2c-0.6,0-1,0.3-1,1.2v6.8c0,0.9,0.4,1.2,1,1.2c0.6,0,1-0.3,1-1.2V8H33.1z"/>
			<path fill="#2C3035" d="M34.1,0.1h6.1v1.8h-2.1v10.8h-2V1.9h-2.1V0.1z"/>
			<path fill="#3A92CA" d="M41.6,0.1h2v10.8h3.2v1.8h-5.2V0.1z"/>
			<path fill="#3A92CA" d="M47.9,0.1h2v12.5h-2V0.1z"/>
			<path fill="#3A92CA" d="M53.9,3.6v9.1h-1.8V0.1h2.5l2,7.5V0.1h1.8v12.5h-2L53.9,3.6z"/>
			<path fill="#3A92CA" d="M62.5,5.4h2.7v1.8h-2.7v3.7h3.4v1.8h-5.4V0.1h5.4v1.8h-3.4V5.4z"/>
		</g>
		<g>
			<path fill="#2C3035" d="M12.4,17.3c0.2,0,0.5,0,0.8,0c0.5,0,0.8,0.1,1.1,0.4c0.2,0.2,0.3,0.6,0.3,1c0,0.1,0,0.3,0,0.4
				c0,0.1-0.1,0.3-0.2,0.4c-0.1,0.1-0.2,0.2-0.3,0.3c-0.1,0.1-0.2,0.2-0.4,0.2C13.6,20,13.4,20,13.2,20c-0.3,0-0.6,0-0.8,0
				L12.4,17.3z M13.3,17.8c-0.1,0-0.3,0-0.3,0v1.7c0.1,0,0.2,0,0.3,0c0.2,0,0.3,0,0.4-0.1c0.1,0,0.2-0.1,0.2-0.2
				c0.1-0.1,0.1-0.2,0.1-0.3c0-0.1,0-0.2,0-0.3c0-0.1,0-0.2,0-0.3c0-0.1-0.1-0.2-0.1-0.3c-0.1-0.1-0.1-0.2-0.2-0.2
				C13.5,17.8,13.4,17.8,13.3,17.8L13.3,17.8z"/>
			<path fill="#2C3035" d="M16.6,17.3h1.7v0.5h-1.1v0.6h1v0.5h-1v0.6h1.2v0.5h-1.7V17.3z"/>
			<path fill="#2C3035" d="M21.2,18.8l0.1,0.4h0l0.1-0.4l0.5-1.5h0.6L21.4,20H21L20,17.3h0.6L21.2,18.8z"/>
			<path fill="#2C3035" d="M24.2,17.3h1.7v0.5h-1.1v0.6h1v0.5h-1v0.6h1.2v0.5h-1.7V17.3z"/>
			<path fill="#2C3035" d="M29.7,19.9h-1.8v-2.6h0.6v2.1h1.3V19.9z"/>
			<path fill="#2C3035" d="M31,18.6c0-0.4,0.1-0.8,0.3-1c0.2-0.2,0.5-0.4,0.9-0.4c0.4,0,0.7,0.1,0.9,0.4c0.2,0.2,0.3,0.6,0.3,1
				c0,0.4-0.1,0.8-0.3,1c-0.2,0.2-0.5,0.4-0.9,0.4c-0.4,0-0.7-0.1-0.9-0.4C31.1,19.4,31,19,31,18.6L31,18.6z M31.6,18.6
				c0,0.3,0.1,0.5,0.2,0.6c0.1,0.2,0.3,0.2,0.5,0.2c0.4,0,0.6-0.3,0.6-0.9c0-0.3,0-0.5-0.2-0.6c-0.1-0.2-0.3-0.2-0.5-0.2
				C31.8,17.8,31.6,18.1,31.6,18.6L31.6,18.6z"/>
			<path fill="#2C3035" d="M35.4,17.3c0.2,0,0.5-0.1,0.8-0.1c0.8,0,1.2,0.3,1.2,0.9c0,0.2,0,0.3-0.1,0.4c-0.1,0.1-0.1,0.2-0.2,0.3
				c-0.1,0.1-0.2,0.1-0.3,0.2c-0.1,0-0.3,0.1-0.4,0.1c-0.2,0-0.3,0-0.3,0v0.9h-0.6L35.4,17.3z M35.9,17.8v0.8c0,0,0.1,0,0.2,0
				c0.1,0,0.2,0,0.2,0c0.1,0,0.1,0,0.2-0.1c0.1,0,0.1-0.1,0.1-0.1c0-0.1,0.1-0.1,0.1-0.2c0-0.3-0.2-0.4-0.6-0.4
				C36.1,17.8,36,17.8,35.9,17.8z"/>
			<path fill="#2C3035" d="M41.4,18.6l0.1-0.5h0l-0.2,0.4l-0.6,1h-0.2l-0.6-1l-0.2-0.4h0l0.1,0.5v1.3h-0.5v-2.6h0.5l0.8,1.2l0.1,0.3
				h0l0.1-0.3l0.7-1.2H42v2.6h-0.6V18.6z"/>
			<path fill="#2C3035" d="M44,17.3h1.7v0.5h-1.1v0.6h1v0.5h-1v0.6h1.2v0.5H44V17.3z"/>
			<path fill="#2C3035" d="M48.4,18.6l-0.2-0.4h0l0.1,0.4v1.4h-0.5v-2.6h0.4l1.1,1.4l0.2,0.4h0l-0.1-0.4v-1.4h0.5V20h-0.4L48.4,18.6
				z"/>
			<path fill="#2C3035" d="M53.9,17.8h-0.8v2.1h-0.6v-2.1h-0.8v-0.5h2.2V17.8z"/>
		</g>
		<g>
			<g>
				<rect x="0.1" y="18.4" fill="#2C3035" width="10.1" height="0.5"/>
			</g>
		</g>
		<g>
			<g>
				<rect x="55.9" y="18.4" fill="#2C3035" width="10.1" height="0.5"/>
			</g>
		</g>
	</g>
	<path fill="#333333" d="M82.9,13.8c0.3,0.2,0.7,0.2,0.9,0c0.3-0.2,0.3-0.6,0-0.8l-7.4-6.8c-0.3-0.2-0.7-0.2-0.9,0L68.2,13
		c-0.3,0.2-0.3,0.6,0,0.8c0.3,0.2,0.7,0.2,0.9,0L76,7.6L82.9,13.8z"/>
	<path fill="#333333" d="M89.1,6.2c-0.3-0.2-0.7-0.2-0.9,0c-0.3,0.2-0.3,0.6,0,0.8l7.4,6.8c0.3,0.2,0.7,0.2,0.9,0l7.4-6.8
		c0.3-0.2,0.3-0.6,0-0.8c-0.3-0.2-0.7-0.2-0.9,0L96,12.4L89.1,6.2z"/>
</g>
</svg>
